 <svg
              width="28"
              height="28"
              viewBox="0 0 28 28"
              fill="none"
              xmlns="http://www.w3.org/2000/svg"
            >
              <g clip-path="url(#clip0_187_112)">
                <path
                  d="M25.6667 13.9999C25.6667 12.7166 24.6167 11.6666 23.3334 11.6666V8.16659C23.3334 6.88325 22.2834 5.83325 21 5.83325H7.00004C5.71671 5.83325 4.66671 6.88325 4.66671 8.16659V11.6666C3.38337 11.6666 2.33337 12.7166 2.33337 13.9999V19.8333H3.88504L4.66671 22.1666H5.83337L6.61504 19.8333H21.3967L22.1667 22.1666H23.3334L24.115 19.8333H25.6667V13.9999ZM21 11.6666H15.1667V8.16659H21V11.6666ZM7.00004 8.16659H12.8334V11.6666H7.00004V8.16659ZM4.66671 13.9999H23.3334V17.4999H4.66671V13.9999Z"
                  fill="#E7AE4B"
                />
              </g>
              <defs>
                <clipPath id="clip0_187_112">
                  <rect width="28" height="28" fill="white" />
                </clipPath>
              </defs>
</svg>