<svg width="185" height="119" viewBox="0 0 185 119" fill="none" xmlns="http://www.w3.org/2000/svg">
<g clip-path="url(#clip0_228_183)">
<path d="M0 0H185V119H0V0Z" fill="#E6E4E0"/>
<path d="M149.201 85.442L148 84.252L151.364 80.325L151.484 76.874L151.123 76.041L150.042 74.137L147.159 71.757L143.195 68.782L140.432 67.711H139.471L138.51 68.187L134.786 71.757L124.695 63.07C125.256 62.1855 126.103 61.5147 127.097 61.166C129.888 60.0854 132.58 58.7716 135.146 57.239C136.649 55.8978 137.98 54.3792 139.11 52.717C140.285 51.121 141.704 49.7159 143.315 48.552C144.685 48.1893 146.102 48.0289 147.519 48.076C148.525 47.9877 149.484 47.616 150.282 47.005C151.116 46.2182 151.736 45.2359 152.084 44.149C152.205 43.44 152.205 42.716 152.084 42.007C152.084 41.055 150.643 35.343 150.523 34.629C150.452 33.8827 150.62 33.1333 151.003 32.487C151.177 32.2341 151.409 32.0264 151.681 31.8814C151.953 31.7364 152.256 31.6584 152.565 31.654L162.536 31.297C163.483 31.1279 164.383 30.763 165.179 30.226C165.887 29.7437 166.399 29.0261 166.62 28.203C166.74 27.608 168.662 20.349 169.263 19.516C169.864 18.683 171.545 16.303 173.347 15.708C174.734 15.4191 176.166 15.4191 177.552 15.708L185 16.66V53.55L181.636 56.763L179.594 57.239L177.552 58.191L176.231 59.976L175.029 63.308L166.86 72.233L154.487 85.68L152.685 85.918L149.201 85.442ZM0 0H46.8506L38.8019 9.52L31.1137 18.683L35.5584 22.729V23.205L33.9967 25.228L32.6753 24.038L31.9545 23.919L30.9935 24.395L15.737 38.675L0 55.93V0ZM73.0389 0H81.3279L83.8506 1.54699L87.0942 8.68699L88.5357 9.87699L86.8539 12.019L73.0389 0ZM89.1364 7.14L86.2532 0.951986L85.5325 0H97.6656L90.3377 8.09199L89.1364 7.14Z" fill="#C0E3A5"/>
<path d="M126.977 61.88L135.266 58.429L140.912 52.122L143.675 49.147L145.477 48.671H148.721L150.763 47.838L152.685 45.101L153.166 42.721L152.445 39.746L151.484 35.343V32.963L152.205 32.368L154.607 31.892L159.653 31.654L163.016 31.892L164.938 31.178L166.981 29.393L168.182 25.585L169.864 19.992L171.786 17.612L173.708 16.303L176.11 16.184L179.714 16.66L185 17.255V0H168.182L166.62 2.975L161.214 7.85397L153.166 13.566L145.357 19.516L141.393 23.086L139.231 26.061L135.987 32.963L133.104 39.508L128.299 49.742L125.416 56.406L125.055 59.619L125.656 61.404L126.256 61.999L126.977 61.88Z" fill="#8ACEEC"/>
<path d="M15.6169 119L29.7922 104.244L42.7662 90.916L57.9026 75.089L61.987 70.329L68.3539 60.69L70.5162 58.072L76.2825 52.122L89.8571 38.199L97.3052 29.869L110.88 14.042L118.448 5.712L123.253 1.34335e-05H124.935L114.003 12.614L106.195 21.539L101.75 26.656L101.87 27.013L105.714 27.846L105.234 29.274L101.029 27.846H100.549L93.3409 36.295L86.4935 43.435L75.6818 54.621L70.6363 59.976L63.6688 70.091L60.9059 73.661L55.2597 79.611L34.237 101.388L22.1039 113.883L17.2987 118.881L15.6169 119ZM159.172 73.185C157.579 72.6597 156.136 71.7616 154.968 70.567C154.031 69.1258 153.417 67.5028 153.166 65.807C153.177 64.8231 152.972 63.8486 152.565 62.951C151.23 61.6151 149.868 60.3058 148.48 59.024L147.88 58.429L146.799 54.978L145.958 52.717C145.362 53.2789 144.801 53.8749 144.276 54.502C144.276 54.502 138.27 60.095 137.429 60.69C136.588 61.285 133.705 62.594 133.705 62.594C132.355 63.1793 130.945 63.6182 129.5 63.903L127.097 66.521L126.256 65.807L127.938 63.665C127.244 63.5084 126.598 63.1887 126.054 62.7331C125.511 62.2776 125.086 61.6993 124.815 61.047C123.854 58.905 125.416 54.74 125.656 54.145L127.218 50.456L132.503 39.508C132.503 39.508 138.149 26.418 140.071 23.919C141.863 21.7371 143.875 19.7433 146.078 17.969L155.688 10.948C155.688 10.948 164.218 4.64101 165.179 3.57001C165.964 2.44176 166.647 1.24713 167.221 1.34335e-05H168.782C168.372 1.56207 167.635 3.02145 166.62 4.28398C165.253 5.71503 163.766 7.02879 162.175 8.21104L149.201 17.136L143.195 22.253C141.772 23.7065 140.559 25.3484 139.591 27.132L137.549 31.535L131.903 43.435L134.305 44.268C135.093 44.4484 135.9 44.5284 136.708 44.506C137.909 44.387 138.75 43.673 139.951 43.554C141.251 43.7399 142.511 44.1422 143.675 44.744C143.675 44.744 144.877 45.22 144.877 45.458L145.597 47.6L146.318 50.813C146.674 50.7134 147.035 50.634 147.399 50.575L151.003 49.742C152.247 49.0565 153.45 48.3017 154.607 47.481C155.625 46.4405 156.513 45.2817 157.25 44.03C157.488 43.4248 157.57 42.7706 157.49 42.126C157.319 41.1582 157.078 40.2038 156.769 39.27C156.769 39.27 155.688 34.51 156.289 33.558C156.493 33.2496 156.784 33.0067 157.125 32.8588C157.466 32.7109 157.844 32.6645 158.211 32.725H162.295C164.182 32.5007 165.99 31.8492 167.581 30.821C169.341 29.7069 170.853 28.2492 172.026 26.537C172.453 24.7777 172.734 22.9867 172.867 21.182C172.867 20.468 173.708 18.207 175.63 17.731C177.065 17.4784 178.536 17.5188 179.955 17.85C180.675 17.85 185 19.04 185 19.04V20.468L179.834 19.278C179.834 19.278 176.471 18.802 175.63 19.278C174.789 19.754 174.669 20.468 174.188 21.658C173.708 22.61 173.828 25.228 173.227 26.656L173.948 27.846C175.333 29.6381 176.617 31.5053 177.792 33.439C178.399 35.0843 178.763 36.8077 178.873 38.556C178.952 39.8242 178.952 41.0959 178.873 42.364C178.756 43.4094 178.555 44.4441 178.273 45.458L177.071 48.076L181.877 44.387C182.59 43.907 183.356 43.5079 184.159 43.197C184.434 43.0987 184.715 43.0191 185 42.959V44.506C184.76 44.4886 184.519 44.4886 184.279 44.506C183.638 44.8391 183.034 45.2379 182.477 45.696C182.237 45.934 178.873 48.552 175.87 50.456L175.149 52.122L172.266 57.596C171.478 58.9958 170.834 60.4709 170.344 61.999L169.383 66.164C168.856 67.7762 168.086 69.3006 167.101 70.686C165.957 72.2661 164.23 73.3353 162.295 73.661C162.056 73.6794 161.815 73.6794 161.575 73.661C160.755 73.613 159.947 73.4528 159.172 73.185V73.185ZM151.364 51.17C149.922 51.527 147.88 51.884 146.919 52.241C147.149 53.012 147.43 53.7672 147.76 54.502C148.12 54.978 148.481 57.358 148.961 57.834L151.604 60.571C151.604 60.571 153.646 62.356 153.886 62.832C154.137 63.6047 154.298 64.4032 154.367 65.212C154.367 65.212 154.727 68.782 155.929 69.972C156.769 70.7987 157.8 71.4112 158.932 71.757C159.778 72.0681 160.672 72.2292 161.575 72.233C162.733 72.1716 163.848 71.7793 164.786 71.1035C165.724 70.4278 166.445 69.4975 166.86 68.425C167.847 66.4215 168.573 64.3023 169.023 62.118L170.224 58.429L173.588 52.241C170.703 53.9694 167.59 55.2911 164.338 56.168C162.01 56.7061 159.594 56.7466 157.25 56.287C155.606 55.8787 154.16 54.9097 153.166 53.55C152.658 52.7298 152.254 51.8504 151.964 50.932C151.726 51.0183 151.486 51.0977 151.244 51.17H151.364ZM126.617 54.74C126.097 56.2397 125.773 57.7996 125.656 59.381C125.804 60.3827 126.219 61.3273 126.857 62.118C127.592 62.6328 128.482 62.8845 129.38 62.832C130.902 62.388 132.387 61.8311 133.825 61.166C134.772 60.7426 135.695 60.2658 136.588 59.738L142.594 54.264L145.477 51.527V51.289L144.636 47.719C144.636 47.362 144.516 46.291 143.795 45.815C142.791 45.3887 141.744 45.0696 140.672 44.863C140.273 44.8133 139.87 44.8133 139.471 44.863C138.609 45.1646 137.725 45.4032 136.828 45.577C135.622 45.6918 134.404 45.6114 133.224 45.339L131.422 44.506L126.617 54.74ZM157.851 34.391C157.13 34.867 157.37 35.581 157.49 36.176L158.451 39.746C158.798 41.0249 158.92 42.3532 158.812 43.673C158.668 44.3395 158.425 44.9811 158.091 45.577C157.324 46.7689 156.394 47.8501 155.328 48.79C154.585 49.4235 153.78 49.9817 152.925 50.456C153.196 51.2343 153.603 51.9593 154.127 52.598C154.987 53.8077 156.272 54.6563 157.731 54.978C159.88 55.3528 162.083 55.3124 164.218 54.859C167.4 53.8937 170.463 52.5764 173.347 50.932L174.909 49.742L177.071 45.22C177.538 43.3933 177.741 41.5101 177.672 39.627C177.6 37.7579 177.235 35.9113 176.591 34.153C175.384 31.9944 174.019 29.9262 172.506 27.965C171.487 29.4701 170.182 30.7636 168.662 31.773C166.778 33.089 164.587 33.9081 162.295 34.153C161.616 34.2025 160.933 34.2025 160.253 34.153H159.052C158.637 34.1224 158.222 34.2048 157.851 34.391V34.391ZM0 49.98V48.552L0.72075 47.838L2.16232 46.053C2.36669 45.3495 2.52719 44.6341 2.64287 43.911C2.54131 43.1894 2.20374 42.5205 1.68185 42.007C1.21496 41.5456 0.690031 41.1457 0.120101 40.817V36.057L0.360375 36.771L0.72075 39.984L2.16232 41.174L2.64287 41.055L5.16557 38.437L5.40584 37.366V32.249L5.16557 30.107L0 31.535V30.107L5.16557 28.917L5.52594 28.084L5.76622 25.347L5.52594 23.562L4.08444 20.349L0 20.944V19.754L4.08444 19.04V18.802L4.20455 12.852C4.25385 12.6556 4.29391 12.4571 4.32465 12.257V12.138C4.41337 11.5264 4.57469 10.9272 4.80519 10.353C5.54496 9.40241 6.22692 8.40898 6.84742 7.37803C7.30444 6.39332 7.62759 5.35287 7.80844 4.28398L8.04872 3.57001C8.23982 2.3881 8.36015 1.19601 8.40909 1.34335e-05V-0.118958H9.61039L9.49029 2.26104L8.28899 7.02104C8.00599 7.79374 7.60047 8.51679 7.08769 9.16303L11.1721 9.63898C12.013 9.87698 17.8994 11.305 19.2208 11.424C20.4207 11.5041 21.6247 11.5041 22.8247 11.424V4.28398L23.0649 3.927L25.2273 1.78501V1.42803L24.026 -0.118958H25.7078C25.8178 0.411309 26.0663 0.903644 26.4286 1.30898C26.9089 1.59854 27.4379 1.80009 27.9902 1.90398C28.8918 2.18222 29.8164 2.38132 30.7532 2.49898C30.8325 2.51501 30.9142 2.51501 30.9935 2.49898C31.2058 2.45384 31.4089 2.37342 31.5941 2.26104L33.8766 -0.118958H36.2792L34.237 1.547C33.4814 2.38392 32.6793 3.17849 31.8344 3.927C31.7171 3.96354 31.5913 3.96354 31.474 3.927C31.2695 3.91288 31.0677 3.87292 30.8734 3.80803L26.0682 2.737L24.1461 4.64104V11.543H26.0682C27.0591 11.2134 27.9914 10.7315 28.8312 10.115H29.0714C29.7589 9.72984 30.4398 9.33312 31.1137 8.92501C31.9532 8.2127 32.7551 7.45801 33.5163 6.66398V6.54501L39.2825 0.595013L38.3215 -0.118958H40.0032L46.9708 5.59303L46.25 6.66398L40.0032 1.42803L39.5228 1.90398L36.2792 5.47398L31.9545 9.99604C31.1811 10.4106 30.3781 10.7686 29.5519 11.067L34.5974 15.351L33.8766 16.303L33.0357 15.589C32.9937 15.6266 32.9536 15.6664 32.9156 15.708L32.7954 15.827L32.5552 16.065L32.1948 16.541L29.5519 19.754C29.4726 19.831 29.3787 19.8917 29.2756 19.9325C29.1726 19.9734 29.0623 19.9936 28.9513 19.992L26.6688 20.111L16.2175 28.917L14.0552 30.464L6.84742 34.629L6.36687 39.151L3.00325 42.126C3.42391 42.7916 3.74745 43.5127 3.96427 44.268C3.68026 45.527 3.1935 46.7324 2.5227 47.838C1.75954 48.5925 0.957612 49.3074 0.120101 49.98V49.98H0ZM5.64612 11.662L5.28574 14.042V19.992C6.39337 21.4879 7.05886 23.2597 7.20779 25.109C7.17016 26.9714 6.84611 28.8174 6.24677 30.583L6.60714 32.963L6.96752 33.32L8.88964 32.249L12.7337 29.988L16.9383 26.656L21.3831 23.086L26.5487 18.802L27.9902 16.898L28.2305 14.518V11.662L26.7889 12.495L24.7467 12.852H20.9026C19.6918 12.715 18.4889 12.5164 17.2987 12.257L9.97076 10.591L6.36687 10.234L5.64612 11.662ZM29.4318 16.303L29.1915 17.017L27.5098 18.921L28.2305 19.04L28.8312 18.802L32.1948 14.994L29.3117 12.495L29.4318 16.303Z" fill="white" stroke="#D6D9E5" stroke-width="0.2"/>
<path d="M0 0V9.04397L3.12335 10.71L7.56817 4.165L8.16882 0H0Z" fill="#EDEDD2"/>
<path d="M12.6136 119H0V114.002L16.3376 94.962L15.737 93.415C14.6876 92.4193 13.5632 91.5044 12.3734 90.678L0 81.158V79.135L16.3376 91.63L19.4611 91.868L31.2338 78.54L30.8734 77.707L16.5779 64.379L13.935 64.855L10.5714 62.475L10.211 58.31L12.7337 55.216H17.0585L19.8214 57.715V61.047L35.198 73.78L40.3636 67.83L40.2435 61.285L44.328 54.978L39.763 51.289L33.9967 46.172L28.5909 41.412L22.9448 34.748L16.2175 29.036L17.2987 28.084L23.9059 33.796L29.4318 40.222L33.9967 44.149L45.7695 54.264L50.4545 56.406L67.6331 37.009L64.5098 34.391L62.8279 35.581L62.3474 35.7L62.1072 35.938C61.5066 36.4141 60.9804 36.9755 60.5455 37.604H60.4253C59.7567 38.5177 59.0347 39.3919 58.263 40.222L56.2208 41.174H56.1007C55.9434 41.2245 55.7829 41.2643 55.6201 41.293L55.0195 41.174C54.7792 40.936 55.0195 40.222 55.1396 39.984H55.2597C56.2161 39.4445 57.1388 38.8484 58.0227 38.199L58.7435 37.366V37.128H58.8636V37.009H58.9837V36.89V36.771L59.224 36.652C59.5401 36.0415 59.9449 35.4803 60.4253 34.986C61.3419 34.3929 62.3062 33.8754 63.3085 33.439H63.4286L61.7468 31.773L59.5844 32.963L55.0195 33.558L50.2143 29.75L49.013 24.157L52.2565 19.516L57.5422 17.731C58.9853 18.0773 60.3928 18.5553 61.7468 19.159C62.6038 19.9794 63.4064 20.8539 64.1494 21.777L64.8701 27.37L64.6299 28.56L63.9091 29.75L65.7111 31.178L70.5163 24.038C71.5568 22.4734 72.6796 20.964 73.8799 19.516L80.3669 12.376L81.3279 11.543L67.7533 1.34334e-05H70.1559L87.6948 15.351L91.2987 11.543L87.9351 8.56803L85.5325 3.80803L84.4513 1.42803L82.4091 1.34334e-05H84.6916L85.7728 1.19001L88.776 7.61604L92.2597 10.591L101.87 -0.118958H118.448L91.2987 30.94V34.034L95.7435 38.913L102.11 44.863L106.555 39.627L103.312 36.89C103.023 36.5109 102.856 36.0551 102.831 35.581C102.925 34.6101 103.127 33.6524 103.432 32.725L107.396 21.896C107.818 21.116 108.343 20.3955 108.958 19.754C109.454 19.4092 110.035 19.2036 110.64 19.159H115.084L116.646 16.184L119.289 12.019L124.334 6.06898L129.62 -0.118958H132.383L124.334 8.80604L120.731 13.209L117.127 18.564L114.604 24.038L112.442 29.869L110.76 34.272V34.391C110.728 34.391 110.697 34.4035 110.675 34.4258C110.652 34.4482 110.64 34.4785 110.64 34.51C110.64 34.5416 110.652 34.5719 110.675 34.5942C110.697 34.6165 110.728 34.629 110.76 34.629H110.64V34.748C109.987 36.3064 109.224 37.8174 108.357 39.27L103.312 45.577H103.192L103.071 45.815L109.919 52.122L115.445 53.907L120.851 56.882L122.052 60.095L122.412 61.999L134.425 72.709L138.87 68.306C139.232 68.0838 139.646 67.9605 140.071 67.949C140.191 67.9415 140.312 67.9415 140.432 67.949C140.912 68.068 143.075 69.734 146.438 72.59L150.282 76.16C150.541 76.4952 150.728 76.8792 150.831 77.2885C150.934 77.6978 150.952 78.1237 150.883 78.54C150.774 79.4477 150.35 80.2893 149.682 80.92L147.039 84.133L148.601 85.5611C149.475 86.0612 150.474 86.3085 151.484 86.275H151.844C152.987 86.3709 154.138 86.2081 155.208 85.799C155.568 85.68 162.416 78.183 175.51 63.665L175.75 63.308C175.892 61.8237 176.478 60.415 177.432 59.262C178.633 58.072 181.997 57.239 182.237 57.12L184.88 54.74V70.21H183.679L171.666 82.586L184.88 95.914V99.841L176.471 108.409V111.146L184.88 119.119H182.477L174.669 111.979L174.909 109.361L166.14 119.119H164.097L171.545 111.027L167.461 109.837L160.734 103.887L150.403 116.739L149.201 118.167C149.083 118.197 148.959 118.197 148.841 118.167C148.73 118.169 148.62 118.148 148.517 118.108C148.413 118.067 148.32 118.006 148.24 117.929C148.168 117.85 148.119 117.753 148.098 117.648C148.077 117.543 148.084 117.435 148.12 117.334C148.108 117.129 148.149 116.924 148.24 116.739L148.961 115.906L159.773 102.816L155.808 99.246L152.925 102.459L142.114 114.359C141.942 114.456 141.798 114.594 141.693 114.76C141.588 114.926 141.526 115.116 141.513 115.311C141.739 116.59 142.144 117.831 142.714 119H119.169L111.721 112.574L88.2955 91.868C87.1808 92.038 86.0465 92.038 84.9318 91.868C84.4782 91.7315 84.0656 91.4862 83.7305 91.154L81.0877 88.893L72.6786 97.937L53.0974 119.119H49.7338L53.9383 114.359L54.1785 113.764H53.4578L48.8929 119.119H44.9286L49.3733 114.359C49.6692 113.851 49.8343 113.279 49.8539 112.693C49.7229 111.578 49.3097 110.514 48.6526 109.599L41.0844 103.054C40.8533 102.961 40.5948 102.961 40.3636 103.054C40.2036 103.043 40.0431 103.043 39.8831 103.054C39.1148 103.215 38.4073 103.586 37.8409 104.125L24.026 119H20.4221L36.6396 101.15L38.4416 100.793L32.6753 96.033L32.315 96.509L12.6136 119.119V119ZM135.146 117.81L137.188 119L136.588 115.906L135.146 117.81ZM84.4513 81.396L124.094 116.144V115.192L103.552 97.223L79.7663 76.279L70.9967 69.853L84.4513 81.396ZM131.422 114.597L133.945 111.265C133.556 111.451 133.155 111.61 132.744 111.741C131.721 112.19 130.618 112.433 129.5 112.455C129.3 112.464 129.099 112.464 128.899 112.455L131.422 114.597ZM81.0877 70.448L86.1331 74.851L119.169 103.768L127.097 110.789L127.938 111.027C128.775 111.149 129.625 111.149 130.461 111.027C132.154 110.409 133.736 109.525 135.146 108.409L140.312 103.173L141.513 101.507L147.76 94.605C147.997 93.4296 148.037 92.2235 147.88 91.035C147.789 89.8857 147.505 88.7596 147.039 87.703L136.227 77.826L132.143 82.348L132.864 82.943V84.014C132.708 84.0684 132.539 84.0684 132.383 84.014C132.224 84.0406 132.062 84.0406 131.903 84.014L131.302 83.419L126.136 89.607C125.535 89.9377 124.887 90.1784 124.214 90.321C124.178 90.3419 124.136 90.3529 124.094 90.3529C124.052 90.3529 124.011 90.3419 123.974 90.321C123.486 90.3001 123.001 90.2202 122.532 90.083L110.039 79.492C109.919 79.492 109.558 79.016 109.558 78.778C109.558 78.5205 109.643 78.27 109.799 78.064L111.36 76.279L116.886 69.615L121.091 64.855L115.925 60.333L93.8214 41.174L88.6558 37.009H86.1331L84.4513 39.032L68.2337 56.168L70.276 59.738L75.0812 65.45L78.6851 68.782L81.0877 70.448ZM79.6461 85.323L57.1818 110.313L80.1266 86.037L81.3279 85.799L79.8864 84.252L79.6461 85.323ZM53.2175 109.837L54.0584 109.123L52.6169 107.933L50.6948 107.576L53.2175 109.837ZM163.737 90.797L157.01 98.056L168.302 108.29L172.867 109.48L184.88 97.58L170.825 83.419L163.737 90.797ZM38.0812 97.223L48.8929 106.386L49.3733 105.196L39.0422 96.271L38.0812 97.223ZM56.1007 69.853L37.1202 91.154L53.9383 105.315H57.5422L74 87.465L76.5227 84.609L64.2695 73.899C64.2695 73.899 63.5487 72.709 63.9091 72.352C63.9639 72.3207 64.026 72.3042 64.0893 72.3042C64.1525 72.3042 64.2147 72.3207 64.2695 72.352C64.5669 72.3504 64.8587 72.433 65.1104 72.59L77.3637 83.538L77.9643 82.824L60.0649 66.521H59.1039L56.1007 69.853ZM34.237 94.01L37.3604 96.509L38.2013 95.676L35.198 92.939L34.237 94.01ZM150.523 91.392L152.925 89.25L150.042 88.655L150.523 91.392ZM82.5292 88.06C83.5951 88.9637 84.7187 89.7984 85.8929 90.559C86.2212 90.5154 86.5435 90.4356 86.8539 90.321L84.211 87.941C83.9547 87.7945 83.6659 87.7128 83.3702 87.703C83.0737 87.7805 82.7903 87.9008 82.5292 88.06ZM111.36 78.54L122.773 88.298C123.043 88.5209 123.382 88.6467 123.734 88.655H123.854C124.258 88.6745 124.663 88.6344 125.055 88.536L126.497 86.751L114.003 75.565L111.36 78.54ZM115.205 74.137L127.578 85.442L129.981 82.586L117.367 71.638L115.205 74.137ZM135.266 73.661L146.078 83.538L146.799 82.824L135.747 73.066L135.266 73.661ZM139.231 70.091L137.068 72.352L147.399 81.753L149.442 79.135C149.583 78.7549 149.625 78.3453 149.562 77.945C149.478 77.5589 149.314 77.1942 149.081 76.874L141.033 69.972C140.769 69.8424 140.484 69.7617 140.192 69.734C140.007 69.7422 139.826 69.7889 139.66 69.8709C139.494 69.9529 139.348 70.0684 139.231 70.21V70.091ZM118.448 70.329L130.942 81.396L134.906 76.755L133.464 75.565L122.292 65.807L118.448 70.329ZM33.1558 76.279L33.5163 75.803L24.3863 67.83L33.1558 76.279ZM41.8052 61.88L42.0455 65.926L49.4935 57.596L45.8896 55.811L41.8052 61.88ZM65.3507 59.262H65.2305L66.0714 59.619L69.4351 61.88L72.9188 64.855L69.5552 61.047L68.2337 58.905L67.1526 57.239L65.3507 59.262ZM181.396 63.665C181.396 63.9004 181.467 64.1304 181.599 64.3261C181.731 64.5218 181.918 64.6744 182.138 64.7644C182.357 64.8545 182.599 64.8781 182.832 64.8321C183.065 64.7862 183.279 64.6729 183.447 64.5065C183.615 64.34 183.729 64.128 183.776 63.8971C183.822 63.6663 183.798 63.4271 183.707 63.2096C183.616 62.9922 183.462 62.8063 183.265 62.6756C183.067 62.5448 182.835 62.475 182.597 62.475C182.279 62.475 181.973 62.6004 181.748 62.8236C181.523 63.0467 181.396 63.3494 181.396 63.665ZM12.8539 60.095C12.8545 60.5471 12.992 60.9887 13.2485 61.3627C13.505 61.7366 13.8688 62.0258 14.2929 62.1928C14.717 62.3599 15.1819 62.3972 15.6277 62.2999C16.0734 62.2026 16.4794 61.9751 16.7933 61.6469C17.1072 61.3187 17.3146 60.9047 17.3886 60.4586C17.4627 60.0125 17.3999 59.5546 17.2086 59.1441C17.0173 58.7336 16.7062 58.3894 16.3153 58.1559C15.9245 57.9224 15.472 57.8102 15.0162 57.834C14.7164 57.8492 14.4225 57.9229 14.1514 58.0509C13.8803 58.1788 13.6374 58.3585 13.4365 58.5796C13.2357 58.8006 13.0808 59.0588 12.9808 59.3393C12.8809 59.6198 12.8377 59.917 12.8539 60.214V60.095ZM120.971 61.285C120.971 61.285 120.13 58.429 119.289 57.834L112.562 54.264L120.971 61.285ZM104.753 34.51C104.579 34.7963 104.495 35.128 104.513 35.462C105.305 36.3473 106.191 37.1453 107.156 37.842L109.558 32.844L110.279 31.178L106.675 29.75L104.753 34.51ZM65.7111 33.677L68.5941 36.057L68.9546 35.581L68.3539 35.105C68.3093 35.0702 68.2689 35.0303 68.2337 34.986V34.867C68.2155 34.8566 68.1948 34.8511 68.1737 34.8511C68.1526 34.8511 68.1319 34.8566 68.1137 34.867V34.748H67.9935L67.8734 34.629L67.6331 34.51C67.6281 34.4705 67.6281 34.4306 67.6331 34.391L67.2727 34.153L67.0325 33.915L66.6721 33.558L66.3117 33.201H65.7111V33.677ZM77.8441 17.493L72.3182 23.681L66.6721 32.011L69.7954 34.867L86.7338 16.065L82.5292 12.495L77.8441 17.493ZM62.7078 30.94H62.5876L64.75 32.963L65.2305 32.606L62.9481 30.583L62.7078 30.94ZM53.0974 20.825L50.6948 24.395L51.5357 29.155L55.1396 31.892L60.0649 31.178L61.7468 29.988L62.9481 28.084L63.0682 25.942L62.4675 22.372L60.7857 20.468L57.7824 19.278L53.0974 20.825ZM109.799 21.301C109.117 22.1841 108.626 23.1968 108.357 24.276L107.156 28.679L110.76 29.869L112.562 24.752L114.243 21.063L110.76 20.944C110.411 20.9682 110.077 21.0923 109.799 21.301Z" fill="white" stroke="#D6D9E5" stroke-width="0.3" stroke-linejoin="round"/>
<g filter="url(#filter0_d_228_183)">
<path d="M92.5001 38.199C90.4762 38.1987 88.4725 38.5974 86.6056 39.3717C84.7388 40.1461 83.0462 41.2806 81.6263 42.7093C80.2064 44.138 79.0877 45.8322 78.3352 47.6934C77.5828 49.5545 77.2117 51.5454 77.2436 53.55C77.2436 59.5 80.4871 63.665 83.7306 67.83C86.1332 70.924 88.5358 74.137 89.7371 78.064L90.9384 82.11H93.341L94.9027 78.064C96.2241 74.018 98.7468 70.805 101.27 67.711C104.513 63.546 107.757 59.262 107.757 53.431C107.757 49.4228 106.149 45.5787 103.288 42.7445C100.427 39.9102 96.5464 38.318 92.5001 38.318V38.199Z" fill="white"/>
</g>
<g filter="url(#filter1_d_228_183)">
<path d="M92.5001 38.199C90.4762 38.1987 88.4725 38.5974 86.6056 39.3717C84.7388 40.1461 83.0462 41.2806 81.6263 42.7093C80.2064 44.138 79.0877 45.8322 78.3352 47.6934C77.5828 49.5545 77.2117 51.5454 77.2436 53.55C77.2436 59.5 80.4871 63.665 83.7306 67.83C86.1332 70.924 88.5358 74.137 89.7371 78.064L90.9384 82.11H93.341L94.9027 78.064C96.2241 74.018 98.7468 70.805 101.27 67.711C104.513 63.546 107.757 59.262 107.757 53.431C107.757 49.4228 106.149 45.5787 103.288 42.7445C100.427 39.9102 96.5464 38.318 92.5001 38.318V38.199Z" fill="white"/>
</g>
<path d="M92.5 40.936C89.1546 40.936 85.9463 42.2525 83.5808 44.5957C81.2153 46.939 79.8864 50.1172 79.8864 53.431C79.8864 62.356 89.1363 67.354 92.2597 77.112C95.8636 66.997 105.114 61.999 105.114 53.312C105.082 50.0188 103.739 46.8711 101.377 44.5535C99.0149 42.2359 95.8246 40.9359 92.5 40.936V40.936Z" fill="#414141"/>
<path d="M92.5 49.2661L87.0941 52.8361V60.928H91.659V56.4061H93.461V60.928H97.9058V52.8361L92.5 49.2661Z" fill="white"/>
</g>
<defs>
<filter id="filter0_d_228_183" x="71.2417" y="35.199" width="42.5149" height="55.911" filterUnits="userSpaceOnUse" color-interpolation-filters="sRGB">
<feFlood flood-opacity="0" result="BackgroundImageFix"/>
<feColorMatrix in="SourceAlpha" type="matrix" values="0 0 0 0 0 0 0 0 0 0 0 0 0 0 0 0 0 0 127 0" result="hardAlpha"/>
<feOffset dy="3"/>
<feGaussianBlur stdDeviation="3"/>
<feColorMatrix type="matrix" values="0 0 0 0 0.133333 0 0 0 0 0.133333 0 0 0 0 0.133333 0 0 0 0.1 0"/>
<feBlend mode="normal" in2="BackgroundImageFix" result="effect1_dropShadow_228_183"/>
<feBlend mode="normal" in="SourceGraphic" in2="effect1_dropShadow_228_183" result="shape"/>
</filter>
<filter id="filter1_d_228_183" x="76.2417" y="38.199" width="32.5149" height="45.911" filterUnits="userSpaceOnUse" color-interpolation-filters="sRGB">
<feFlood flood-opacity="0" result="BackgroundImageFix"/>
<feColorMatrix in="SourceAlpha" type="matrix" values="0 0 0 0 0 0 0 0 0 0 0 0 0 0 0 0 0 0 127 0" result="hardAlpha"/>
<feOffset dy="1"/>
<feGaussianBlur stdDeviation="0.5"/>
<feColorMatrix type="matrix" values="0 0 0 0 0 0 0 0 0 0 0 0 0 0 0 0 0 0 0.1 0"/>
<feBlend mode="normal" in2="BackgroundImageFix" result="effect1_dropShadow_228_183"/>
<feBlend mode="normal" in="SourceGraphic" in2="effect1_dropShadow_228_183" result="shape"/>
</filter>
<clipPath id="clip0_228_183">
<rect width="185" height="119" fill="white"/>
</clipPath>
</defs>
</svg>
