<svg width="185" height="110" viewBox="0 0 185 110" fill="none" xmlns="http://www.w3.org/2000/svg">
<g clip-path="url(#clip0_230_446)">
<path d="M0 0H185V110H0V0Z" fill="#E6E4E0"/>
<path d="M65.1104 110L23.065 88.6601C23.065 88.6601 22.224 87.8901 22.5844 87.2301C22.9448 86.5701 23.9059 86.7899 23.9059 86.7899L69.5552 109.89L65.1104 110ZM118.688 105.82L110.76 103.07L99.4675 98.45L89.6169 93.6101L65.5909 81.6199L42.2857 69.85L36.2793 66.9899L30.1526 64.7899L22.8247 62.7L15.2565 61.3801L12.2533 60.9399L2.00197e-05 59.0699V55.8801L4.68508 56.5399L17.1786 58.4101L31.2338 61.7101L36.3994 63.5801L46.8507 68.5301L58.1429 74.1399L77.3637 83.8199L92.7403 91.52L105.714 97.6801L120.61 102.85L130.581 105.49L150.643 109.89H135.386L118.688 105.82ZM118.088 110L112.081 108.46L102.11 104.5L90.6981 98.6699L70.276 87.6699L40.2435 72.7101L29.9123 68.3101L23.065 66.1101L14.6559 64.6801L5.40586 63.5801L2.00197e-05 62.7V59.4L2.76299 60.0601L14.776 61.4899L22.5844 62.9199L30.2728 65.1199L35.078 66.77L41.3247 69.7399L50.5747 74.1399L71.237 84.5899L103.071 101.09L113.403 105.49L131.062 109.89L118.088 110ZM107.276 110L93.8214 104.5L89.4968 102.41L85.6526 110.11H82.8896L87.4546 101.31L80.2468 97.35L57.1818 85.5801L47.211 80.52L32.315 73.3699L25.2273 70.6199L16.8182 68.4199L6.84744 66.6601L-0.120117 65.7801V63.8L7.08768 64.6801L16.6981 66.2199L26.0682 68.75L33.5163 71.6101L58.5033 83.9301L82.0487 95.9199L90.8182 100.87L95.9838 103.29L112.562 110H107.276ZM127.097 93.5L124.935 90.2L129.74 74.1399C129.795 74.0281 129.878 73.9299 129.982 73.8533C130.087 73.7768 130.21 73.7243 130.341 73.7L133.464 73.15L159.052 79.0899L161.815 67.8699L154.127 67.1L143.195 64.9L129.86 61.6L99.2273 48.0699L91.539 44.8801L84.0909 41.1399L79.2857 49.2801L96.4643 57.8601L98.3864 59.5101C98.6203 59.7957 98.7468 60.143 98.7468 60.5V61.05C98.7954 61.4521 98.7954 61.858 98.7468 62.2601C98.7468 62.5901 94.302 70.6201 91.6591 75.4601V75.5699C91.5691 75.7966 91.4003 75.9898 91.1786 76.1199C90.3933 76.4155 89.5913 76.6725 88.776 76.8899L84.8117 75.5699L48.7727 57.0899L47.0909 54.45L47.6916 52.25L53.9384 41.25L55.6201 39.05L56.341 38.8301C56.4202 38.8152 56.5019 38.8152 56.5812 38.8301C57.6376 38.9309 58.6826 39.115 59.7046 39.3801L63.6688 41.3601L77.3637 48.2899L82.289 40.15L51.0552 24.5301L48.2922 23.4301L33.3961 20.1301L13.815 17.1601L4.56494 15.6199L2.00197e-05 22.55V18.7L2.64289 14.85L2.00197e-05 13.4199V10.8899L2.16234 12.3199L4.56494 13.4199L19.1007 15.95L33.7565 18.15L47.6916 21.2301L59.3442 0H61.987L49.7338 21.7801L50.2143 22L62.3475 0H64.7501L52.1364 22.7699L59.9449 26.5101L92.8604 43.1199L100.068 46.2L106.555 35.5301L109.679 29.5899L111.721 24.2L113.403 15.5101V11.1101L112.802 6.05L111.12 0H113.523L114.964 5.71995L115.565 10.8899V15.4C115.565 15.4 114.844 20.8999 114.604 21.6699C114.364 22.5499 113.283 26.4 112.802 27.5L109.318 34.7601L102.11 47.0801L130.942 59.7301L133.464 60.3899L139.11 48.4L144.636 39.05L159.893 24.5301C160.142 24.3788 160.435 24.3019 160.734 24.3101C161.051 24.3142 161.353 24.4326 161.575 24.6399C161.801 24.843 161.931 25.12 161.935 25.4101C161.919 25.6979 161.791 25.9709 161.575 26.1801L157.01 30.3601L182.718 57.6399C182.827 57.7715 182.909 57.9209 182.958 58.0801C182.995 58.2429 182.98 58.412 182.917 58.5677C182.853 58.7235 182.742 58.8596 182.597 58.9601C182.394 59.1109 182.138 59.189 181.877 59.1801C181.541 59.1801 181.211 59.1046 180.916 58.9601L176.471 54.1199L166.86 56.1L157.851 55.2199L151.244 53.7899L148.36 59.8399C148.34 59.955 148.299 60.0665 148.24 60.1699C148.141 60.2846 148.012 60.375 147.865 60.4326C147.719 60.4902 147.558 60.5133 147.399 60.5C147.24 60.5211 147.078 60.5211 146.919 60.5C146.438 60.28 146.198 60.17 146.078 59.95C146.052 59.8736 146.05 59.7923 146.071 59.7147C146.092 59.6372 146.136 59.5666 146.198 59.5101L149.802 52.0301L154.607 44.55L160.854 37.5101L155.328 31.7899L146.558 40.15L140.912 49.5L135.627 61.05L154.487 65.1199L163.497 66H170.344L175.87 65.45L184.279 62.2601L185 61.7101V64.2399L175.87 67.5399L169.864 67.9801H164.097L161.214 79.5301L185 84.9199V87.0101L160.373 81.5101L133.344 75.1301L131.542 75.5699L127.338 89.8699L128.539 91.7399L182.597 103.62L184.64 103.29L185 102.63V105.27L182.597 105.71L127.097 93.5ZM55.8604 42.1301L49.7338 53.0199L49.2533 54.1199L50.3345 55.6601L85.7728 73.8101L88.776 74.8L89.737 74.4699L96.5845 61.9301L96.4643 60.7199L95.0227 59.4L59.224 41.4699L56.8214 41.0301L55.8604 42.1301ZM156.529 45.65L152.325 51.9199L157.971 53.2399L166.74 54.1199L174.789 52.4699L162.295 39.05L156.529 45.65ZM12.7338 48.0699L2.52275 46.9699L2.00197e-05 46.0899V43.8899L3.1234 44.7699L15.1364 46.2H16.3377L17.539 44.8801L19.9416 31.6801L19.4611 29.7L17.539 28.6L12.7338 29.0399L1.68183 27.3899L2.00197e-05 26.5101V24.0899L2.52275 25.4101L12.8539 27.0601L17.7792 26.6199C18.0173 26.5783 18.2619 26.5783 18.5 26.6199C19.4891 27.1115 20.4157 27.7019 21.263 28.3801C21.6297 29.4227 21.9107 30.4889 22.1039 31.5699L19.7013 45.8699L17.539 47.9601C17.539 47.9601 17.4188 48.1799 16.6981 48.2899C16.5383 48.3046 16.3773 48.3046 16.2176 48.2899L12.7338 48.0699ZM169.263 28.4899L169.623 24.5301C169.623 24.5301 169.623 23.9799 169.864 23.8699H170.464L175.27 24.6399L184.88 34.5399V36.3L174.669 25.85L171.065 25.3L170.705 28.05L185 41.8V43.6699L169.263 28.4899ZM83.7306 36.1899C83.5153 36.0942 83.3467 35.9285 83.2579 35.725C83.169 35.5216 83.1662 35.2951 83.25 35.0899L86.8539 29.15L64.7501 18.15C64.537 17.9989 64.3856 17.7865 64.3202 17.5471C64.2549 17.3077 64.2793 17.0552 64.3896 16.8301C64.5112 16.6479 64.694 16.5065 64.9105 16.4272C65.127 16.3479 65.3656 16.3348 65.5909 16.3899L71.237 19.0301L82.0487 0H84.6916L73.1591 19.9101L87.8149 27.3899L92.6201 16.9399L91.7793 6.26995L88.776 0H91.1786L93.9416 5.71995L95.0227 17.05L89.4968 28.8199L85.1721 35.8601C85.0602 35.9967 84.9151 36.1076 84.7483 36.184C84.5815 36.2604 84.3975 36.3 84.211 36.3C84.0443 36.2943 83.8806 36.2567 83.7306 36.1899ZM42.8864 9.78989L9.1299 4.28989L3.84419 2.08989L0.961044 0H4.3247L5.04549 0.55L10.0909 2.53005L34.8377 6.38005L38.2013 0H40.7241L37.1202 6.6L43.7273 7.7C43.7273 7.7 44.5682 7.92011 44.328 8.91011C44.2718 9.16231 44.1208 9.38848 43.9013 9.54927C43.6818 9.71006 43.4077 9.79508 43.1267 9.78989C43.0467 9.79554 42.9664 9.79554 42.8864 9.78989Z" fill="white" stroke="#D6D9E5" stroke-width="0.3"/>
<path d="M0 0V11L4.32468 13.2L34.1169 18.0399L47.5714 21.1199L53.3377 23.3199L92.3799 42.7899L100.068 46.0899C103.022 41.8715 105.632 37.4596 107.877 32.8899C110.76 26.9499 114.003 19.58 113.282 10.45C112.562 1.32 111.24 0 111.24 0H0Z" fill="#F73131" fill-opacity="0.07"/>
<path d="M0 13.4199L2.76297 14.85L4.68506 15.6199L33.5163 20.0199L48.2922 23.3199L82.4091 40.15L91.6591 44.9899L103.192 49.83L129.74 61.6L143.075 64.9L153.646 67.1L163.977 67.98H170.224L175.87 67.43L185 64.13V110H150.523L130.101 105.27L120.37 102.74L105.474 97.68L60.0649 75.13L43.6071 66.9899L35.9189 63.3601L31.2338 61.6L16.9383 58.3L0 55.88V13.4199Z" fill="#F73131" fill-opacity="0.15"/>
<g filter="url(#filter0_d_230_446)">
<path d="M51.6558 39.6C54.2694 39.6 56.8242 40.3096 58.9973 41.6392C61.1704 42.9688 62.8641 44.8585 63.8642 47.0695C64.8644 49.2805 65.1261 51.7134 64.6162 54.0606C64.1063 56.4077 62.8478 58.5638 60.9997 60.256C59.1517 61.9482 56.7971 63.1006 54.2338 63.5675C51.6705 64.0344 49.0135 63.7947 46.5989 62.8789C44.1843 61.9631 42.1205 60.4122 40.6685 58.4224C39.2165 56.4325 38.4415 54.0931 38.4415 51.7C38.4415 48.4909 39.8337 45.4132 42.3119 43.144C44.7901 40.8748 48.1512 39.6 51.6558 39.6Z" fill="white"/>
</g>
<g filter="url(#filter1_d_230_446)">
<path d="M51.6558 39.6C54.2694 39.6 56.8242 40.3096 58.9973 41.6392C61.1704 42.9688 62.8641 44.8585 63.8642 47.0695C64.8644 49.2805 65.1261 51.7134 64.6162 54.0606C64.1063 56.4077 62.8478 58.5638 60.9997 60.256C59.1517 61.9482 56.7971 63.1006 54.2338 63.5675C51.6705 64.0344 49.0135 63.7947 46.5989 62.8789C44.1843 61.9631 42.1205 60.4122 40.6685 58.4224C39.2165 56.4325 38.4415 54.0931 38.4415 51.7C38.4415 48.4909 39.8337 45.4132 42.3119 43.144C44.7901 40.8748 48.1512 39.6 51.6558 39.6Z" fill="white"/>
</g>
<path d="M51.6558 41.8C53.7942 41.8 55.8845 42.3806 57.6625 43.4684C59.4404 44.5563 60.8262 46.1024 61.6445 47.9114C62.4628 49.7204 62.6769 51.711 62.2598 53.6314C61.8426 55.5518 60.8129 57.3158 59.3008 58.7003C57.7888 60.0849 55.8623 61.0278 53.7651 61.4098C51.6678 61.7918 49.4939 61.5957 47.5184 60.8464C45.5428 60.0971 43.8542 58.8282 42.6662 57.2001C41.4782 55.5721 40.8441 53.658 40.8441 51.7C40.8441 49.0743 41.9832 46.5562 44.0108 44.6996C46.0384 42.843 48.7884 41.8 51.6558 41.8Z" fill="#EE908E"/>
<path d="M49.6136 45.98V49.94H45.2889V53.57H49.6136V57.31H53.5779V53.57H57.9026V49.94H53.5779V45.98H49.6136Z" fill="white"/>
<g filter="url(#filter2_d_230_446)">
<path d="M93.7013 12.1C96.3149 12.1 98.8697 12.8096 101.043 14.1392C103.216 15.4688 104.91 17.3585 105.91 19.5695C106.91 21.7805 107.172 24.2134 106.662 26.5606C106.152 28.9077 104.893 31.0638 103.045 32.756C101.197 34.4482 98.8426 35.6006 96.2793 36.0675C93.716 36.5344 91.0591 36.2947 88.6445 35.3789C86.2299 34.4631 84.1661 32.9122 82.7141 30.9224C81.2621 28.9325 80.4871 26.5931 80.4871 24.2C80.4871 20.9909 81.8793 17.9132 84.3574 15.644C86.8356 13.3748 90.1967 12.1 93.7013 12.1Z" fill="white"/>
</g>
<g filter="url(#filter3_d_230_446)">
<path d="M93.7013 12.1C96.3149 12.1 98.8697 12.8096 101.043 14.1392C103.216 15.4688 104.91 17.3585 105.91 19.5695C106.91 21.7805 107.172 24.2134 106.662 26.5606C106.152 28.9077 104.893 31.0638 103.045 32.756C101.197 34.4482 98.8426 35.6006 96.2793 36.0675C93.716 36.5344 91.0591 36.2947 88.6445 35.3789C86.2299 34.4631 84.1661 32.9122 82.7141 30.9224C81.2621 28.9325 80.4871 26.5931 80.4871 24.2C80.4871 20.9909 81.8793 17.9132 84.3574 15.644C86.8356 13.3748 90.1967 12.1 93.7013 12.1Z" fill="white"/>
</g>
<path d="M93.7013 14.3C95.8397 14.3 97.93 14.8806 99.708 15.9684C101.486 17.0563 102.872 18.6024 103.69 20.4114C104.508 22.2204 104.722 24.211 104.305 26.1314C103.888 28.0518 102.858 29.8158 101.346 31.2003C99.8343 32.5849 97.9079 33.5278 95.8106 33.9098C93.7133 34.2918 91.5395 34.0957 89.5639 33.3464C87.5883 32.5971 85.8998 31.3282 84.7118 29.7001C83.5237 28.0721 82.8896 26.158 82.8896 24.2C82.8896 21.5743 84.0287 19.0562 86.0563 17.1996C88.0839 15.343 90.8339 14.3 93.7013 14.3Z" fill="#EE908E"/>
<path d="M91.6592 18.48V22.44H87.3345V26.07H91.6592V29.92H95.6234V26.07H99.9481V22.44H95.6234V18.48H91.6592Z" fill="white"/>
<g filter="url(#filter4_d_230_446)">
<path d="M126.136 70.4C128.75 70.4 131.305 71.1097 133.478 72.4392C135.651 73.7688 137.345 75.6586 138.345 77.8696C139.345 80.0805 139.607 82.5135 139.097 84.8606C138.587 87.2078 137.328 89.3638 135.48 91.056C133.632 92.7482 131.278 93.9006 128.714 94.3675C126.151 94.8344 123.494 94.5948 121.08 93.679C118.665 92.7631 116.601 91.2123 115.149 89.2224C113.697 87.2326 112.922 84.8932 112.922 82.5C112.922 79.2909 114.314 76.2132 116.792 73.944C119.271 71.6748 122.632 70.4 126.136 70.4Z" fill="white"/>
</g>
<g filter="url(#filter5_d_230_446)">
<path d="M126.136 70.4C128.75 70.4 131.305 71.1097 133.478 72.4392C135.651 73.7688 137.345 75.6586 138.345 77.8696C139.345 80.0805 139.607 82.5135 139.097 84.8606C138.587 87.2078 137.328 89.3638 135.48 91.056C133.632 92.7482 131.278 93.9006 128.714 94.3675C126.151 94.8344 123.494 94.5948 121.08 93.679C118.665 92.7631 116.601 91.2123 115.149 89.2224C113.697 87.2326 112.922 84.8932 112.922 82.5C112.922 79.2909 114.314 76.2132 116.792 73.944C119.271 71.6748 122.632 70.4 126.136 70.4Z" fill="white"/>
</g>
<path d="M126.136 72.6C128.275 72.6 130.365 73.1807 132.143 74.2685C133.921 75.3563 135.307 76.9025 136.125 78.7115C136.943 80.5205 137.158 82.511 136.74 84.4314C136.323 86.3518 135.293 88.1159 133.781 89.5004C132.269 90.8849 130.343 91.8278 128.246 92.2098C126.148 92.5918 123.975 92.3958 121.999 91.6464C120.023 90.8971 118.335 89.6282 117.147 88.0002C115.959 86.3721 115.325 84.4581 115.325 82.5C115.325 79.8744 116.464 77.3563 118.491 75.4997C120.519 73.6431 123.269 72.6 126.136 72.6Z" fill="#EE908E"/>
<path d="M124.094 76.78V80.74H119.77V84.37H124.094V88.11H128.058V84.37H132.383V80.74H128.058V76.78H124.094Z" fill="white"/>
</g>
<defs>
<filter id="filter0_d_230_446" x="32.4415" y="36.6" width="38.4286" height="36.2" filterUnits="userSpaceOnUse" color-interpolation-filters="sRGB">
<feFlood flood-opacity="0" result="BackgroundImageFix"/>
<feColorMatrix in="SourceAlpha" type="matrix" values="0 0 0 0 0 0 0 0 0 0 0 0 0 0 0 0 0 0 127 0" result="hardAlpha"/>
<feOffset dy="3"/>
<feGaussianBlur stdDeviation="3"/>
<feColorMatrix type="matrix" values="0 0 0 0 0.133333 0 0 0 0 0.133333 0 0 0 0 0.133333 0 0 0 0.1 0"/>
<feBlend mode="normal" in2="BackgroundImageFix" result="effect1_dropShadow_230_446"/>
<feBlend mode="normal" in="SourceGraphic" in2="effect1_dropShadow_230_446" result="shape"/>
</filter>
<filter id="filter1_d_230_446" x="37.4415" y="39.6" width="28.4286" height="26.2" filterUnits="userSpaceOnUse" color-interpolation-filters="sRGB">
<feFlood flood-opacity="0" result="BackgroundImageFix"/>
<feColorMatrix in="SourceAlpha" type="matrix" values="0 0 0 0 0 0 0 0 0 0 0 0 0 0 0 0 0 0 127 0" result="hardAlpha"/>
<feOffset dy="1"/>
<feGaussianBlur stdDeviation="0.5"/>
<feColorMatrix type="matrix" values="0 0 0 0 0 0 0 0 0 0 0 0 0 0 0 0 0 0 0.1 0"/>
<feBlend mode="normal" in2="BackgroundImageFix" result="effect1_dropShadow_230_446"/>
<feBlend mode="normal" in="SourceGraphic" in2="effect1_dropShadow_230_446" result="shape"/>
</filter>
<filter id="filter2_d_230_446" x="74.4871" y="9.09998" width="38.4286" height="36.2" filterUnits="userSpaceOnUse" color-interpolation-filters="sRGB">
<feFlood flood-opacity="0" result="BackgroundImageFix"/>
<feColorMatrix in="SourceAlpha" type="matrix" values="0 0 0 0 0 0 0 0 0 0 0 0 0 0 0 0 0 0 127 0" result="hardAlpha"/>
<feOffset dy="3"/>
<feGaussianBlur stdDeviation="3"/>
<feColorMatrix type="matrix" values="0 0 0 0 0.133333 0 0 0 0 0.133333 0 0 0 0 0.133333 0 0 0 0.1 0"/>
<feBlend mode="normal" in2="BackgroundImageFix" result="effect1_dropShadow_230_446"/>
<feBlend mode="normal" in="SourceGraphic" in2="effect1_dropShadow_230_446" result="shape"/>
</filter>
<filter id="filter3_d_230_446" x="79.4871" y="12.1" width="28.4286" height="26.2" filterUnits="userSpaceOnUse" color-interpolation-filters="sRGB">
<feFlood flood-opacity="0" result="BackgroundImageFix"/>
<feColorMatrix in="SourceAlpha" type="matrix" values="0 0 0 0 0 0 0 0 0 0 0 0 0 0 0 0 0 0 127 0" result="hardAlpha"/>
<feOffset dy="1"/>
<feGaussianBlur stdDeviation="0.5"/>
<feColorMatrix type="matrix" values="0 0 0 0 0 0 0 0 0 0 0 0 0 0 0 0 0 0 0.1 0"/>
<feBlend mode="normal" in2="BackgroundImageFix" result="effect1_dropShadow_230_446"/>
<feBlend mode="normal" in="SourceGraphic" in2="effect1_dropShadow_230_446" result="shape"/>
</filter>
<filter id="filter4_d_230_446" x="106.922" y="67.4" width="38.4286" height="36.2" filterUnits="userSpaceOnUse" color-interpolation-filters="sRGB">
<feFlood flood-opacity="0" result="BackgroundImageFix"/>
<feColorMatrix in="SourceAlpha" type="matrix" values="0 0 0 0 0 0 0 0 0 0 0 0 0 0 0 0 0 0 127 0" result="hardAlpha"/>
<feOffset dy="3"/>
<feGaussianBlur stdDeviation="3"/>
<feColorMatrix type="matrix" values="0 0 0 0 0.133333 0 0 0 0 0.133333 0 0 0 0 0.133333 0 0 0 0.1 0"/>
<feBlend mode="normal" in2="BackgroundImageFix" result="effect1_dropShadow_230_446"/>
<feBlend mode="normal" in="SourceGraphic" in2="effect1_dropShadow_230_446" result="shape"/>
</filter>
<filter id="filter5_d_230_446" x="111.922" y="70.4" width="28.4286" height="26.2" filterUnits="userSpaceOnUse" color-interpolation-filters="sRGB">
<feFlood flood-opacity="0" result="BackgroundImageFix"/>
<feColorMatrix in="SourceAlpha" type="matrix" values="0 0 0 0 0 0 0 0 0 0 0 0 0 0 0 0 0 0 127 0" result="hardAlpha"/>
<feOffset dy="1"/>
<feGaussianBlur stdDeviation="0.5"/>
<feColorMatrix type="matrix" values="0 0 0 0 0 0 0 0 0 0 0 0 0 0 0 0 0 0 0.1 0"/>
<feBlend mode="normal" in2="BackgroundImageFix" result="effect1_dropShadow_230_446"/>
<feBlend mode="normal" in="SourceGraphic" in2="effect1_dropShadow_230_446" result="shape"/>
</filter>
<clipPath id="clip0_230_446">
<rect width="185" height="110" fill="white"/>
</clipPath>
</defs>
</svg>
