<svg width="185" height="121" viewBox="0 0 185 121" fill="none" xmlns="http://www.w3.org/2000/svg">
<g clip-path="url(#clip0_230_417)">
<path d="M0 1.19806H185V121H0V1.19806Z" fill="#E6E4E0"/>
<path d="M79.8864 121C79.9429 120.341 79.8157 119.679 79.519 119.087C79.2222 118.495 78.7674 117.996 78.2045 117.646C77.6812 117.392 77.1042 117.269 76.5227 117.286C75.6327 117.309 74.7804 117.649 74.1201 118.245C73.547 118.658 73.1252 119.247 72.9188 119.922C72.881 120.32 72.881 120.721 72.9188 121.12H71.3571C71.4209 120.989 71.454 120.846 71.454 120.701C71.454 120.555 71.4209 120.412 71.3571 120.281C69.3863 119.649 67.3809 119.129 65.3507 118.724L60.6656 117.286C60.5589 117.238 60.4735 117.153 60.4253 117.047C60.3998 117.024 60.3793 116.996 60.3653 116.965C60.3512 116.934 60.344 116.901 60.344 116.867C60.344 116.833 60.3512 116.799 60.3653 116.768C60.3793 116.737 60.3998 116.71 60.4253 116.687L60.9058 116.567C60.9857 116.559 61.0662 116.559 61.1461 116.567L64.5097 117.406L70.1558 113.452L69.6753 112.734L59.4643 96.3208L55.2597 89.8515L50.5747 80.9862C50.1539 80.1271 49.6294 79.3224 49.013 78.5901C48.5789 78.4974 48.1353 78.4572 47.6916 78.4703H46.6104C46.3063 78.3358 45.9812 78.2547 45.6494 78.2307C45.4032 78.2175 45.1571 78.2584 44.9286 78.3505L21.6234 92.607L21.0227 92.9664C20.3274 93.542 19.5602 94.0252 18.7403 94.404C18.6607 94.4174 18.5795 94.4174 18.5 94.404C17.8101 94.3437 17.1267 94.2234 16.4578 94.0446L13.8149 95.602C13.8867 96.0384 13.8867 96.4835 13.8149 96.9198C13.3301 97.5496 12.7647 98.1135 12.1331 98.5971L0.12013 105.785V103.868V103.509V101.472L12.974 93.805L0 72.6V71.0426L13.6948 93.4456L28.9513 84.3406L2.64286 40.9723C2.5961 40.857 2.5961 40.7282 2.64286 40.6129C2.65044 40.5206 2.69348 40.4347 2.76299 40.3733C2.84072 40.3459 2.92552 40.3459 3.00325 40.3733C3.12338 40.3733 3.36364 40.3733 3.48377 40.6129L29.6721 83.8614L42.4058 76.3139L42.526 76.1941C42.9525 75.8216 43.3538 75.4214 43.7273 74.9961C43.8493 74.7725 43.9306 74.5291 43.9675 74.2773V74.1574C43.9916 73.9027 44.0738 73.6568 44.2078 73.4386C44.2425 73.3562 44.2826 73.2762 44.3279 73.199C44.5051 73.0395 44.6305 72.831 44.6883 72.6C44.5587 72.1112 44.3982 71.631 44.2078 71.1624V70.9228L41.0844 65.5317L11.2922 16.2931C11.2922 16.2931 10.8117 15.5743 10.211 15.4545C10.0512 15.4392 9.89033 15.4392 9.73052 15.4545C9.57131 15.4298 9.40921 15.4298 9.25 15.4545L1.92208 20.007V20.7258L2.88312 23.002L3.48377 23.1218L8.52922 31.3881L36.3993 77.3921C36.3993 77.3921 36.6396 77.9911 36.3993 78.1109C36.1591 78.2307 35.5584 77.8713 35.5584 77.8713L3.12338 23.9604L2.28247 23.7208L0.24026 21.3248L0.12013 21.0852V18.9746L0 19.0485V18.8089L0.12013 18.7364V16.8921L26.0682 1.31785H28.8023L29.1916 1.07825H32.4351L14.0552 12.3396C13.811 12.5113 13.6396 12.7676 13.5747 13.0584C14.0034 14.1623 14.5684 15.2087 15.2565 16.1733L23.6656 30.5495L24.026 27.7941L64.2695 3.83369C64.4276 3.79774 64.5919 3.79774 64.75 3.83369H64.9903C65.1104 4.19309 64.75 4.67231 64.75 4.67231L24.7468 28.7525L24.5065 31.7476L47.6916 69.8446C48.3411 69.9665 48.9829 70.1265 49.6136 70.3238C50.1905 70.562 50.7964 70.7231 51.4156 70.803C51.4951 70.8164 51.5763 70.8164 51.6558 70.803L66.4318 61.8179H66.6721C66.7007 61.7328 66.7411 61.6521 66.7922 61.5782L90.0974 47.4416L91.539 45.8842L93.3409 44.6862L95.5033 43.9674L99.9481 41.3317L129.38 23.601C129.38 23.601 131.182 22.7624 131.422 22.1634C131.54 21.7756 131.581 21.3687 131.542 20.9654V20.7258C131.542 20.3145 131.624 19.9074 131.782 19.5278C132.215 18.7786 132.539 17.9718 132.744 17.1317C132.714 16.4791 132.593 15.8337 132.383 15.2149L126.737 6.10994L123.734 1.31785H127.097L127.458 1.67726L128.058 1.19805H129.62L127.818 2.39607L135.146 14.2565C135.387 14.5867 135.722 14.8372 136.107 14.9753C136.407 15.1209 136.735 15.2024 137.068 15.2149H137.789C137.868 15.2015 137.95 15.2015 138.029 15.2149C138.193 15.2404 138.353 15.2805 138.51 15.3347C139.076 15.6248 139.684 15.8268 140.312 15.9337C140.966 15.9062 141.614 15.7852 142.234 15.5743C142.594 15.5743 145.837 13.5379 152.324 9.46505L152.325 9.46438L152.685 9.22478H152.805C153.029 9.04202 153.271 8.88153 153.526 8.74558L158.812 5.51092L156.049 1.19805H157.01L159.532 5.15152L165.779 1.19805H172.386L144.156 18.2099C143.695 18.4454 143.286 18.7714 142.955 19.1683C142.684 19.9373 142.562 20.7502 142.594 21.5644C142.409 22.3359 142.083 23.0668 141.633 23.7208C140.725 24.6701 139.617 25.4066 138.39 25.8773C138.116 25.9552 137.833 25.9955 137.549 25.9971C136.823 25.9648 136.101 25.8848 135.386 25.7575L133.705 25.5179C133.428 25.455 133.147 25.4149 132.864 25.398C132.706 25.3575 132.541 25.3575 132.383 25.398L125.536 29.7109C125.449 29.7355 125.367 29.7761 125.295 29.8307L97.5454 46.603L96.3442 47.3218L95.6234 48.4L93.461 49.8377L92.0195 50.0773L90.5779 50.9159L70.3961 63.1357L53.3377 73.4386L52.8571 74.5169L52.3766 76.3139C52.2086 76.69 52.1665 77.1101 52.2565 77.5119C53.138 79.0136 54.0593 80.4917 55.0195 81.9446L57.7825 86.3773L59.3442 88.7733L60.9058 92.3674L62.3474 95.003L67.6331 102.91L72.7987 111.296L74.4805 114.052L75.3214 115.13C76.0131 115.422 76.74 115.624 77.4838 115.729L79.4058 116.088C79.4858 116.081 79.5662 116.081 79.6461 116.088C80.0544 116.054 80.4574 115.974 80.8474 115.849C81.4481 115.729 86.3734 112.614 88.0552 111.536H88.1753L108.838 98.8367L134.305 83.502L159.532 68.2872L185 51.7545V55.9475L177.792 61.099L169.623 66.6099L162.656 70.803L145.838 80.8664L118.208 97.6386L103.071 106.624L87.0942 116.208L83.4903 118.364C82.9895 118.592 82.5401 118.918 82.1688 119.323C81.8518 119.825 81.685 120.407 81.6883 121H79.8864Z" fill="white"/>
<path d="M25.1071 108.061C25.1071 108.061 24.7468 106.983 25.4675 106.624C25.642 106.491 25.8498 106.408 26.0682 106.384C26.385 106.389 26.6873 106.518 26.9091 106.744L35.3182 121H34.3571H33.9968H33.1558L25.1071 108.061Z" fill="white"/>
<path d="M161.455 74.7565L179.234 95.7218L185 102.551V99.9149L162.656 73.5584C162.59 73.4596 162.501 73.3785 162.396 73.3224C162.291 73.2663 162.174 73.237 162.055 73.237C161.936 73.237 161.819 73.2663 161.714 73.3224C161.61 73.3785 161.52 73.4596 161.455 73.5584C161.318 73.7284 161.244 73.9397 161.244 74.1574C161.244 74.3752 161.318 74.5865 161.455 74.7565Z" fill="white"/>
<path d="M0 90.8099L3.84416 97.2792C3.84416 97.2792 4.20455 97.7584 4.56494 97.7584C4.60146 97.7795 4.64289 97.7905 4.68507 97.7905C4.72724 97.7905 4.76867 97.7795 4.80519 97.7584C5.04545 97.5188 4.80519 96.9198 4.80519 96.9198L0 89.2525V90.8099Z" fill="white"/>
<path d="M0 54.6297L20.0617 87.9347C20.1913 88.0648 20.3601 88.149 20.5422 88.1743C20.5816 88.1844 20.6229 88.1844 20.6623 88.1743C20.9026 87.9347 20.4221 86.9763 20.4221 86.9763L0 53.1921V54.6297Z" fill="white"/>
<path d="M93.7013 39.4149L73.2792 6.22973C73.2792 6.22973 73.039 5.63072 73.2792 5.39112C73.5195 5.15151 74 5.63072 74 5.63072L94.4221 38.9357C94.4221 38.9357 94.6623 39.5347 94.4221 39.6545M79.8864 121C79.9429 120.341 79.8157 119.679 79.519 119.087C79.2222 118.495 78.7674 117.996 78.2045 117.646C77.6812 117.392 77.1042 117.269 76.5227 117.286C75.6327 117.309 74.7804 117.649 74.1201 118.245C73.547 118.658 73.1252 119.247 72.9188 119.922C72.881 120.32 72.881 120.721 72.9188 121.12H71.3571C71.4209 120.989 71.454 120.846 71.454 120.701C71.454 120.555 71.4209 120.412 71.3571 120.281C69.3863 119.649 67.3809 119.129 65.3507 118.724L60.6656 117.286C60.5589 117.238 60.4735 117.153 60.4253 117.047C60.3998 117.024 60.3793 116.996 60.3653 116.965C60.3512 116.934 60.344 116.901 60.344 116.867C60.344 116.833 60.3512 116.799 60.3653 116.768C60.3793 116.737 60.3998 116.71 60.4253 116.687L60.9058 116.567C60.9857 116.559 61.0662 116.559 61.1461 116.567L64.5097 117.406L70.1558 113.452L69.6753 112.734L59.4643 96.3208L55.2597 89.8515L50.5747 80.9862C50.1539 80.1271 49.6294 79.3224 49.013 78.5901C48.5789 78.4974 48.1353 78.4572 47.6916 78.4703H46.6104C46.3063 78.3358 45.9812 78.2547 45.6494 78.2307C45.4032 78.2175 45.1571 78.2584 44.9286 78.3505L21.6234 92.607L21.0227 92.9664C20.3274 93.542 19.5602 94.0252 18.7403 94.404C18.6607 94.4174 18.5795 94.4174 18.5 94.404C17.8101 94.3437 17.1267 94.2235 16.4578 94.0446V94.0446L13.8149 95.602C13.8867 96.0384 13.8867 96.4835 13.8149 96.9198C13.3301 97.5496 12.7647 98.1135 12.1331 98.5971V98.5971L0.12013 105.785V103.868V103.509V103.868L11.4123 97.0396L12.1331 96.0812L0.12013 103.509V101.472L12.974 93.805L0 72.6V71.0426L13.6948 93.4456L28.9513 84.3406L2.64286 40.9723C2.5961 40.857 2.5961 40.7282 2.64286 40.6129C2.65044 40.5206 2.69348 40.4347 2.76299 40.3733C2.84072 40.3459 2.92552 40.3459 3.00325 40.3733C3.12338 40.3733 3.36364 40.3733 3.48377 40.6129L29.6721 83.8614L42.4058 76.3139L42.526 76.1941C42.9525 75.8216 43.3538 75.4214 43.7273 74.9961C43.8493 74.7725 43.9306 74.5291 43.9675 74.2773V74.2773V74.1574C43.9916 73.9027 44.0738 73.6568 44.2078 73.4386C44.2425 73.3562 44.2827 73.2762 44.3279 73.199C44.5051 73.0395 44.6305 72.831 44.6883 72.6C44.5587 72.1112 44.3982 71.631 44.2078 71.1624V71.1624V70.9228L41.0844 65.5317L11.2922 16.2931C11.2922 16.2931 10.8117 15.5743 10.211 15.4545C10.0512 15.4392 9.89033 15.4392 9.73052 15.4545C9.57131 15.4298 9.40921 15.4298 9.25 15.4545L1.92208 20.007V20.7258L2.88312 23.002L3.48377 23.1218L8.52922 31.3881L36.3994 77.3921C36.3994 77.3921 36.6396 77.9911 36.3994 78.1109C36.1591 78.2307 35.5584 77.8713 35.5584 77.8713L3.12338 23.9604L2.28247 23.7208L0.24026 21.3248L0.12013 21.0852V16.8921L26.0682 1.31785H28.9513L0 18.8089V19.0485L29.1916 1.07825H28.8312H32.4351L14.0552 12.3396C13.811 12.5113 13.6396 12.7676 13.5747 13.0584C14.0034 14.1623 14.5684 15.2087 15.2565 16.1733L23.6656 30.5495L24.026 27.7941L64.2695 3.83369C64.4276 3.79774 64.5919 3.79774 64.75 3.83369H64.9903C65.1104 4.19309 64.75 4.67231 64.75 4.67231L24.7468 28.7525L24.5065 31.7476L47.6916 69.8446C48.3411 69.9665 48.9829 70.1265 49.6136 70.3238C50.1905 70.562 50.7964 70.7231 51.4156 70.803C51.4951 70.8164 51.5763 70.8164 51.6558 70.803L66.4318 61.8179H66.6721C66.7007 61.7328 66.7411 61.6521 66.7922 61.5782L90.0974 47.4416L91.539 45.8842L93.3409 44.6862L95.5032 43.9673L99.948 41.3317L129.38 23.601C129.38 23.601 131.182 22.7624 131.422 22.1634C131.54 21.7756 131.581 21.3687 131.542 20.9654V20.9654V20.7258C131.542 20.3145 131.624 19.9074 131.782 19.5278V19.5278C132.215 18.7786 132.539 17.9718 132.744 17.1317C132.714 16.4791 132.593 15.8337 132.383 15.2149V15.2149L126.737 6.10994L123.734 1.31785H127.097L127.458 1.67726L128.058 1.19805H129.62L127.818 2.39607L135.146 14.2565C135.387 14.5867 135.722 14.8372 136.107 14.9753C136.407 15.1209 136.735 15.2024 137.068 15.2149H137.789C137.868 15.2015 137.95 15.2015 138.029 15.2149C138.193 15.2404 138.353 15.2805 138.51 15.3347V15.3347C139.076 15.6248 139.684 15.8268 140.312 15.9337C140.966 15.9062 141.614 15.7852 142.234 15.5743C142.594 15.5743 145.838 13.5376 152.325 9.46438L152.685 9.22478H152.805C153.029 9.04202 153.271 8.88153 153.526 8.74558V8.74558L158.812 5.51092L156.049 1.19805H157.01L159.532 5.15152L165.779 1.19805H172.386L144.156 18.2099C143.695 18.4454 143.286 18.7714 142.955 19.1683C142.684 19.9373 142.562 20.7502 142.594 21.5644C142.409 22.3359 142.083 23.0668 141.633 23.7208C140.725 24.6701 139.617 25.4066 138.39 25.8773C138.116 25.9552 137.833 25.9955 137.549 25.9971C136.823 25.9648 136.101 25.8848 135.386 25.7575V25.7575L133.705 25.5179C133.428 25.455 133.147 25.4149 132.864 25.398C132.706 25.3575 132.541 25.3575 132.383 25.398L125.536 29.7109C125.449 29.7355 125.367 29.7761 125.295 29.8307V29.8307L97.5455 46.603L96.3442 47.3218L95.6234 48.4L93.461 49.8377L92.0195 50.0773L90.5779 50.9159L70.3961 63.1357L53.3377 73.4386L52.8571 74.5169L52.3766 76.3139C52.2086 76.69 52.1665 77.1101 52.2565 77.5119C53.138 79.0136 54.0593 80.4917 55.0195 81.9446V81.9446L57.7825 86.3773L59.3442 88.7733L60.9058 92.3674L62.3474 95.003L67.6331 102.91L72.7987 111.296L74.4805 114.052L75.3214 115.13C76.0131 115.422 76.74 115.624 77.4838 115.729L79.4058 116.088C79.4858 116.081 79.5662 116.081 79.6461 116.088V116.088C80.0544 116.054 80.4574 115.974 80.8474 115.849C81.4481 115.729 86.3734 112.614 88.0552 111.536H88.1753L108.838 98.8367L134.305 83.502L159.532 68.2872L185 51.7545V55.9475L177.792 61.099L169.623 66.6099L162.656 70.803L145.838 80.8664L118.208 97.6386L103.071 106.624L87.0942 116.208L83.4903 118.364C82.9896 118.592 82.5401 118.918 82.1688 119.323C81.8518 119.825 81.685 120.407 81.6883 121H79.8864V121ZM70.276 119.083C70.5356 119.223 70.8225 119.304 71.1169 119.323C71.3743 119.309 71.6232 119.226 71.8377 119.083C72.3182 118.844 71.8377 116.687 71.5974 115.729L70.6364 114.291L65.8312 117.885L70.276 119.083ZM44.0877 76.7931L17.6591 92.7267L44.0877 77.1525L45.289 76.7931L44.8084 76.0743L44.0877 76.7931ZM133.344 20.4862C133.344 21.2207 133.563 21.9387 133.972 22.5495C134.381 23.1602 134.963 23.6362 135.643 23.9173C136.324 24.1984 137.072 24.272 137.795 24.1287C138.517 23.9854 139.181 23.6317 139.701 23.1123C140.222 22.5929 140.577 21.9311 140.721 21.2107C140.864 20.4903 140.791 19.7436 140.509 19.0649C140.227 18.3863 139.75 17.8063 139.137 17.3982C138.525 16.9901 137.805 16.7723 137.068 16.7723C136.081 16.7723 135.133 17.1636 134.435 17.8601C133.737 18.5566 133.344 19.5012 133.344 20.4862V20.4862ZM0.840909 20.606L1.32143 21.4446L1.08117 20.4862L0.840909 20.606ZM25.1071 108.061C25.1071 108.061 24.7468 106.983 25.4675 106.624C25.642 106.491 25.8498 106.408 26.0682 106.384C26.385 106.389 26.6873 106.518 26.9091 106.744L35.3182 121H33.1558L25.1071 108.061ZM25.9481 107.223C25.7078 107.462 25.9481 107.942 26.0682 108.061L33.9968 121H34.3571L26.4286 107.462L25.9481 107.103C25.9298 107.092 25.9091 107.087 25.888 107.087C25.8669 107.087 25.8462 107.092 25.8279 107.103L25.9481 107.223ZM179.234 95.7218L161.455 74.7565C161.318 74.5865 161.244 74.3752 161.244 74.1574C161.244 73.9397 161.318 73.7284 161.455 73.5584C161.52 73.4596 161.61 73.3785 161.714 73.3224C161.819 73.2663 161.936 73.237 162.055 73.237C162.174 73.237 162.291 73.2663 162.396 73.3224C162.501 73.3785 162.59 73.4596 162.656 73.5584L185 99.9149V102.551L179.234 95.7218ZM3.84416 97.2792L0 90.8099V89.2525L4.80519 96.9198C4.80519 96.9198 5.04545 97.5188 4.80519 97.7584C4.76867 97.7795 4.72724 97.7905 4.68507 97.7905C4.64289 97.7905 4.60146 97.7795 4.56494 97.7584C4.20455 97.7584 3.84416 97.2792 3.84416 97.2792V97.2792ZM20.0617 87.9347L0 54.6297V53.1921L20.4221 86.9763C20.4221 86.9763 20.9026 87.9347 20.6623 88.1743C20.6229 88.1844 20.5816 88.1844 20.5422 88.1743C20.3601 88.149 20.1913 88.0648 20.0617 87.9347V87.9347Z" stroke="#D6D9E5" stroke-width="0.3" stroke-linejoin="round"/>
<path d="M48.5325 121H49.2533L46.0098 115.968L45.5293 115.609L43.9676 112.734C43.9676 112.734 43.8475 112.494 43.6072 112.494C43.6072 112.614 43.4871 112.614 43.6072 112.973L45.1689 115.849L42.2858 117.526L41.8053 117.646L41.3247 117.526L41.0845 117.286L37.0001 110.817L40.3637 108.421L41.565 109.499H41.9254L49.1332 105.186L48.7728 104.947L48.2923 105.186L47.8117 104.587L47.5715 104.827L47.9319 105.426L45.5293 106.863L44.8085 105.665L47.5715 103.988C47.7748 103.824 48.0309 103.739 48.2923 103.749C48.3722 103.742 48.4526 103.742 48.5325 103.749C48.725 103.778 48.9094 103.847 49.0745 103.95C49.2397 104.053 49.3823 104.188 49.4936 104.348L53.0975 110.338L54.0585 110.577L57.7825 117.286C57.8877 117.721 57.9679 118.161 58.0228 118.604C58.0718 119.002 58.0718 119.404 58.0228 119.802L56.4611 121H57.6624L58.8637 119.802V118.604C58.7884 118.036 58.6679 117.475 58.5033 116.927L54.6592 110.338L54.4189 110.098L53.578 109.978L49.854 103.988C49.854 103.988 49.7338 103.629 49.1332 103.389C48.9346 103.353 48.7311 103.353 48.5325 103.389C48.3733 103.364 48.2112 103.364 48.052 103.389L47.091 103.988L44.8085 105.306L42.6462 106.504L40.0033 107.702L37.841 108.9L37.6007 109.02L32.9156 111.655C32.796 111.671 32.6749 111.671 32.5553 111.655C32.4627 111.648 32.3766 111.605 32.315 111.536L31.1137 109.739L27.5098 107.702L27.9903 108.421L30.7533 109.978L32.0747 112.374L30.8734 113.213L31.354 113.932L32.5553 112.973L32.9156 113.333L36.7598 111.056L38.9221 114.291C39.0952 114.666 39.1775 115.077 39.1624 115.489C39.1642 115.842 39.036 116.183 38.802 116.448C38.698 116.525 38.5716 116.567 38.4416 116.567L36.7598 117.526C36.5197 117.681 36.3151 117.885 36.1592 118.125C36.1124 118.24 36.1124 118.369 36.1592 118.484L37.7208 121.12H39.763L37.7208 117.526L38.5617 117.047L40.8442 121H41.2046L38.802 116.927C39.0592 116.646 39.2627 116.322 39.4027 115.968C39.4589 115.732 39.4589 115.486 39.4027 115.25L41.0845 117.765C41.2944 117.938 41.5409 118.061 41.8053 118.125C42.0114 118.125 42.2156 118.084 42.4059 118.005L45.289 116.208C45.3255 116.187 45.367 116.176 45.4092 116.176C45.4513 116.176 45.4928 116.187 45.5293 116.208C45.6081 116.188 45.6907 116.188 45.7695 116.208L48.5325 121Z" fill="white"/>
<path d="M20.5423 110.457L26.9092 121H27.3897L25.3475 117.765L25.828 116.687C25.8649 116.57 25.8649 116.445 25.828 116.328L23.4254 111.775C23.4082 111.719 23.3773 111.667 23.3353 111.625C23.2934 111.584 23.2418 111.553 23.1851 111.536L21.6234 111.296L21.0228 110.338V110.098L24.9871 107.702V107.223L20.6624 109.978C20.6134 110.008 20.5722 110.049 20.5423 110.098C20.4955 110.213 20.4955 110.342 20.5423 110.457Z" fill="white"/>
<path d="M33.276 117.406L33.5163 117.765L35.078 116.927L36.2793 116.328L38.0812 114.531C38.1374 114.398 38.1663 114.255 38.1663 114.111C38.1663 113.967 38.1374 113.825 38.0812 113.692C38.0009 113.577 37.8928 113.483 37.7668 113.421C37.6409 113.358 37.5012 113.328 37.3605 113.333C36.8379 113.477 36.3484 113.721 35.9189 114.052C35.6151 114.364 35.3709 114.73 35.1981 115.13L34.9579 115.369C34.9035 115.767 34.9035 116.17 34.9579 116.567L33.276 117.406Z" fill="white"/>
<path d="M36.7598 114.052L35.9189 114.651C35.7642 114.871 35.6428 115.113 35.5585 115.369L35.3182 116.448L35.7988 116.328L36.5195 115.609L37.7208 114.291C37.7395 114.244 37.7481 114.194 37.7459 114.143C37.7437 114.093 37.7308 114.043 37.7082 113.998C37.6855 113.953 37.6535 113.913 37.6143 113.881C37.5751 113.849 37.5295 113.825 37.4806 113.812M49.2533 121H48.5325L45.7695 116.208C45.6907 116.188 45.6081 116.188 45.5293 116.208C45.4928 116.187 45.4513 116.176 45.4092 116.176C45.367 116.176 45.3255 116.187 45.289 116.208L42.4059 118.005C42.2156 118.084 42.0114 118.125 41.8053 118.125V118.125C41.5409 118.061 41.2944 117.938 41.0845 117.765L39.4027 115.25C39.4589 115.486 39.4589 115.732 39.4027 115.968C39.2627 116.322 39.0592 116.646 38.802 116.927L41.2046 121H40.8442L38.5617 117.047L37.7208 117.526L39.763 121.12H37.7208L36.1592 118.484C36.1124 118.369 36.1124 118.24 36.1592 118.125C36.3151 117.885 36.5197 117.681 36.7598 117.526V117.526L38.4416 116.567C38.5716 116.567 38.698 116.525 38.802 116.448V116.448C39.036 116.183 39.1642 115.842 39.1624 115.489C39.1775 115.077 39.0952 114.666 38.9221 114.291L36.7598 111.056L32.9156 113.333L32.5553 112.973L31.354 113.932L30.8734 113.213L32.0747 112.374L30.7533 109.978L27.9903 108.421L27.5098 107.702L31.1137 109.739L32.315 111.536C32.3766 111.605 32.4627 111.648 32.5553 111.655C32.6749 111.671 32.796 111.671 32.9156 111.655L37.6007 109.02L37.841 108.9L40.0033 107.702L42.6462 106.504L44.8085 105.306L47.091 103.988L48.052 103.389C48.2112 103.364 48.3733 103.364 48.5325 103.389C48.7311 103.353 48.9346 103.353 49.1332 103.389C49.7338 103.629 49.854 103.988 49.854 103.988L53.578 109.978L54.4189 110.098L54.6592 110.338L58.5033 116.927C58.6679 117.475 58.7884 118.036 58.8637 118.604V119.802L57.6624 121H56.4611L58.0228 119.802C58.0718 119.404 58.0718 119.002 58.0228 118.604C57.9679 118.161 57.8877 117.721 57.7825 117.286V117.286L54.0585 110.577L53.0975 110.338L49.4936 104.348C49.3823 104.188 49.2397 104.053 49.0745 103.95C48.9094 103.847 48.725 103.778 48.5325 103.749C48.4526 103.742 48.3722 103.742 48.2923 103.749C48.0309 103.739 47.7748 103.824 47.5715 103.988L44.8085 105.665L45.5293 106.863L47.9319 105.426L47.5715 104.827L47.8117 104.587L48.2923 105.186L48.7728 104.947L49.1332 105.186L41.9254 109.499H41.565L40.3637 108.421L37.0001 110.817L41.0845 117.286L41.3247 117.526L41.8053 117.646L42.2858 117.526L45.1689 115.849L43.6072 112.973C43.4871 112.614 43.6072 112.614 43.6072 112.494C43.8475 112.494 43.9676 112.734 43.9676 112.734L45.5293 115.609L46.0098 115.968L49.2533 121ZM36.5195 118.245L38.0812 121H39.2825L37.1202 117.765L36.5195 118.245ZM40.9643 108.181L41.9254 109.14L45.289 107.103L44.5682 105.905L40.9643 108.181ZM26.9092 121L20.5423 110.457C20.4955 110.342 20.4955 110.213 20.5423 110.098C20.5722 110.049 20.6134 110.008 20.6624 109.978L24.9871 107.223V107.702L21.0228 110.098V110.338L21.6234 111.296L23.1851 111.536C23.2418 111.553 23.2934 111.584 23.3353 111.625C23.3773 111.667 23.4082 111.719 23.4254 111.775V111.775L25.828 116.328C25.8649 116.445 25.8649 116.57 25.828 116.687L25.3475 117.765L27.3897 121H26.9092ZM23.9059 115.01V115.25L25.1072 117.406L25.3475 116.687V116.328L24.1462 114.171L23.9059 115.01ZM23.5455 114.77L24.026 113.572L23.065 112.015L21.8637 111.895L23.5455 114.77ZM33.5163 117.765L33.276 117.406L34.9579 116.567C34.9035 116.17 34.9035 115.767 34.9579 115.369L35.1981 115.13C35.3709 114.73 35.6151 114.364 35.9189 114.052C36.3484 113.721 36.8379 113.477 37.3605 113.333V113.333C37.5012 113.328 37.6409 113.358 37.7668 113.421C37.8928 113.483 38.0009 113.577 38.0812 113.692C38.1374 113.825 38.1663 113.967 38.1663 114.111C38.1663 114.255 38.1374 114.398 38.0812 114.531L36.2793 116.328L35.078 116.927L33.5163 117.765Z" stroke="#D6D9E5" stroke-width="0.1" stroke-linejoin="round"/>
<path d="M48.4123 76.6733C47.807 76.6733 47.2264 76.4335 46.7984 76.0066C46.3704 75.5797 46.1299 75.0008 46.1299 74.3971C46.1299 73.7934 46.3704 73.2144 46.7984 72.7876C47.2264 72.3607 47.807 72.1208 48.4123 72.1208C49.0177 72.1208 49.5982 72.3607 50.0263 72.7876C50.4543 73.2144 50.6948 73.7934 50.6948 74.3971C50.6948 75.0008 50.4543 75.5797 50.0263 76.0066C49.5982 76.4335 49.0177 76.6733 48.4123 76.6733Z" fill="#EDEDCF"/>
<path d="M48.4124 72.3604C47.8707 72.3604 47.3513 72.575 46.9683 72.957C46.5853 73.3389 46.3702 73.8569 46.3702 74.3971C46.3702 74.9372 46.5853 75.4552 46.9683 75.8372C47.3513 76.2191 47.8707 76.4337 48.4124 76.4337C48.954 76.4337 49.4734 76.2191 49.8564 75.8372C50.2394 75.4552 50.4546 74.9372 50.4546 74.3971C50.4546 73.8569 50.2394 73.3389 49.8564 72.957C49.4734 72.575 48.954 72.3604 48.4124 72.3604V72.3604ZM48.4124 72.001C49.0496 72.001 49.6607 72.2535 50.1113 72.7028C50.5618 73.1522 50.815 73.7616 50.815 74.3971C50.815 75.0325 50.5618 75.642 50.1113 76.0913C49.6607 76.5407 49.0496 76.7931 48.4124 76.7931C47.7752 76.7931 47.164 76.5407 46.7135 76.0913C46.2629 75.642 46.0098 75.0325 46.0098 74.3971C46.0098 73.7616 46.2629 73.1522 46.7135 72.7028C47.164 72.2535 47.7752 72.001 48.4124 72.001Z" fill="#D6D9E5"/>
<path d="M0 105.905L12.6136 98.2377C12.9843 98.0099 13.2774 97.6759 13.4545 97.2792C13.6948 96.5604 13.4545 96.0812 13.6948 95.602L16.4578 93.9248C17.0584 93.4456 17.6591 94.404 18.2597 94.404C18.7784 94.3118 19.2705 94.1073 19.7013 93.805L44.6883 78.5901C45.3408 78.208 46.0973 78.0403 46.8506 78.1109C47.9318 78.1109 49.4935 78.8297 50.6948 78.1109C51.8961 77.3921 52.1364 75.8347 52.737 74.8763C53.1674 73.9303 53.8281 73.1066 54.6591 72.4802L91.8994 50.0773C92.4463 49.9544 92.9725 49.7526 93.461 49.4783C94.3881 49.0411 95.2728 48.5198 96.1039 47.9208L96.9448 46.9624L132.263 25.5179C132.554 25.3304 132.881 25.2078 133.224 25.1585C133.821 24.996 134.456 25.0382 135.026 25.2783C136.15 25.6535 137.325 25.8555 138.51 25.8773C139.845 25.4944 140.997 24.6435 141.753 23.4812C142.2 22.5791 142.484 21.606 142.594 20.606C142.834 19.5278 142.594 19.1683 143.555 18.4495L172.146 1.19806H185V51.7545L166.981 63.7347L81.2078 115.609C80.697 116.015 80.0586 116.227 79.4058 116.208C78.3387 115.939 77.2553 115.739 76.1623 115.609C75.3057 115.591 74.4652 115.843 73.7597 116.328C72.8051 116.957 72.0868 117.884 71.7175 118.963L71.3571 121H0V105.905Z" fill="#912B9A" fill-opacity="0.07"/>
<path d="M42.526 76.0743C42.526 76.0743 43.7273 75.4753 43.8474 74.7565C43.9675 74.0377 44.4481 71.5218 45.7695 70.803C46.86 70.1778 48.1256 69.9254 49.3734 70.0842C50.3344 70.3238 50.9351 70.803 51.776 70.5634C52.6169 70.3238 60.7857 65.0525 60.7857 65.0525L90.0974 47.202C90.3878 46.854 90.7095 46.5332 91.0584 46.2436C91.8514 45.492 92.74 44.8476 93.7013 44.3268L95.263 43.9674L130.221 22.6426C130.732 22.3714 131.215 22.0503 131.662 21.6842C132.023 21.205 131.302 20.1268 131.662 19.2882C132.034 18.4291 132.355 17.549 132.623 16.6525C132.362 15.6798 131.957 14.7513 131.422 13.8971L123.734 1.19806H32.6753L0 21.0852V101.712L42.526 76.0743Z" fill="#912B9A" fill-opacity="0.15"/>
<g filter="url(#filter0_d_230_417)">
<path d="M54.0584 37.1386C56.6719 37.1386 59.2268 37.9115 61.3999 39.3595C63.5729 40.8076 65.2667 42.8657 66.2668 45.2737C67.267 47.6817 67.5287 50.3314 67.0188 52.8878C66.5089 55.4441 65.2504 57.7922 63.4023 59.6352C61.5543 61.4782 59.1997 62.7333 56.6364 63.2418C54.0731 63.7503 51.4161 63.4893 49.0015 62.4919C46.5869 61.4945 44.5231 59.8054 43.0711 57.6383C41.6191 55.4711 40.8441 52.9232 40.8441 50.3168C40.8441 46.8217 42.2363 43.4698 44.7145 40.9984C47.1926 38.527 50.5538 37.1386 54.0584 37.1386Z" fill="white"/>
</g>
<g filter="url(#filter1_d_230_417)">
<path d="M54.0584 37.1386C56.6719 37.1386 59.2268 37.9115 61.3999 39.3595C63.5729 40.8076 65.2667 42.8657 66.2668 45.2737C67.267 47.6817 67.5287 50.3314 67.0188 52.8878C66.5089 55.4441 65.2504 57.7922 63.4023 59.6352C61.5543 61.4782 59.1997 62.7333 56.6364 63.2418C54.0731 63.7503 51.4161 63.4893 49.0015 62.4919C46.5869 61.4945 44.5231 59.8054 43.0711 57.6383C41.6191 55.4711 40.8441 52.9232 40.8441 50.3168C40.8441 46.8217 42.2363 43.4698 44.7145 40.9984C47.1926 38.527 50.5538 37.1386 54.0584 37.1386Z" fill="white"/>
</g>
<path d="M54.0584 39.5347C56.1967 39.5347 58.2871 40.167 60.065 41.3518C61.843 42.5366 63.2288 44.2205 64.0471 46.1907C64.8654 48.1609 65.0795 50.3288 64.6623 52.4203C64.2452 54.5119 63.2155 56.4331 61.7034 57.941C60.1914 59.4489 58.2649 60.4758 56.1676 60.8918C54.0704 61.3079 51.8965 61.0944 49.9209 60.2783C47.9454 59.4622 46.2568 58.0802 45.0688 56.3071C43.8808 54.534 43.2467 52.4494 43.2467 50.3168C43.2467 47.4572 44.3858 44.7147 46.4134 42.6927C48.441 40.6706 51.191 39.5347 54.0584 39.5347Z" fill="#BB85BC"/>
<path d="M53.4578 48.7594H52.3767V44.9257H51.2955V48.7594H50.2143V44.9257H49.2533V48.7594C49.2821 49.2902 49.5065 49.7917 49.8835 50.1676C50.2604 50.5435 50.7632 50.7673 51.2955 50.796V55.5881H52.7371V50.796C53.2693 50.7673 53.7722 50.5435 54.1491 50.1676C54.526 49.7917 54.7504 49.2902 54.7793 48.7594V44.9257H53.578L53.4578 48.7594ZM56.2208 47.0822V51.5148H57.6624V55.8277H58.8637V45.0455C58.2386 45.0351 57.63 45.2461 57.1461 45.6409C56.6623 46.0357 56.3344 46.5888 56.2208 47.202V47.0822Z" fill="white"/>
<g filter="url(#filter2_d_230_417)">
<path d="M102.11 7.18811C104.724 7.18811 107.279 7.961 109.452 9.40904C111.625 10.8571 113.319 12.9152 114.319 15.3232C115.319 17.7312 115.581 20.3809 115.071 22.9373C114.561 25.4936 113.302 27.8417 111.454 29.6847C109.606 31.5277 107.252 32.7828 104.688 33.2913C102.125 33.7998 99.4681 33.5388 97.0535 32.5414C94.6389 31.544 92.5751 29.8549 91.1231 27.6878C89.6711 25.5206 88.8961 22.9727 88.8961 20.3663C88.8961 16.8712 90.2883 13.5193 92.7665 11.0479C95.2447 8.57653 98.6058 7.18811 102.11 7.18811Z" fill="white"/>
</g>
<g filter="url(#filter3_d_230_417)">
<path d="M102.11 7.18811C104.724 7.18811 107.279 7.961 109.452 9.40904C111.625 10.8571 113.319 12.9152 114.319 15.3232C115.319 17.7312 115.581 20.3809 115.071 22.9373C114.561 25.4936 113.302 27.8417 111.454 29.6847C109.606 31.5277 107.252 32.7828 104.688 33.2913C102.125 33.7998 99.4681 33.5388 97.0535 32.5414C94.6389 31.544 92.5751 29.8549 91.1231 27.6878C89.6711 25.5206 88.8961 22.9727 88.8961 20.3663C88.8961 16.8712 90.2883 13.5193 92.7665 11.0479C95.2447 8.57653 98.6058 7.18811 102.11 7.18811Z" fill="white"/>
</g>
<path d="M102.11 9.58417C104.249 9.58417 106.339 10.2165 108.117 11.4013C109.895 12.5861 111.281 14.27 112.099 16.2402C112.917 18.2104 113.132 20.3783 112.714 22.4698C112.297 24.5614 111.267 26.4826 109.755 27.9905C108.243 29.4984 106.317 30.5253 104.22 30.9413C102.122 31.3574 99.9485 31.1439 97.9729 30.3278C95.9974 29.5117 94.3088 28.1297 93.1208 26.3566C91.9328 24.5835 91.2987 22.4989 91.2987 20.3663C91.2987 17.5067 92.4378 14.7642 94.4654 12.7422C96.493 10.7201 99.243 9.58417 102.11 9.58417Z" fill="#BB85BC"/>
<path d="M101.51 18.8089H100.429V14.9752H99.3474V18.8089H98.2662V14.9752H97.3052V18.8089C97.334 19.3397 97.5584 19.8412 97.9353 20.2171C98.3123 20.593 98.8151 20.8168 99.3474 20.8455V25.6376H100.789V20.8455C101.321 20.8168 101.824 20.593 102.201 20.2171C102.578 19.8412 102.802 19.3397 102.831 18.8089V14.9752H101.63L101.51 18.8089ZM104.273 17.1317V21.5643H105.714V25.8772H106.916V15.095C106.29 15.0846 105.682 15.2956 105.198 15.6904C104.714 16.0852 104.386 16.6383 104.273 17.2515V17.1317Z" fill="white"/>
<g filter="url(#filter4_d_230_417)">
<path d="M93.7013 76.6733C96.3149 76.6733 98.8697 77.4462 101.043 78.8942C103.216 80.3423 104.91 82.4004 105.91 84.8084C106.91 87.2164 107.172 89.8661 106.662 92.4224C106.152 94.9788 104.893 97.3269 103.045 99.1699C101.197 101.013 98.8426 102.268 96.2793 102.776C93.716 103.285 91.0591 103.024 88.6445 102.027C86.2299 101.029 84.1661 99.3401 82.7141 97.1729C81.2621 95.0058 80.4871 92.4579 80.4871 89.8515C80.4871 86.3564 81.8793 83.0045 84.3574 80.5331C86.8356 78.0617 90.1967 76.6733 93.7013 76.6733Z" fill="white"/>
</g>
<g filter="url(#filter5_d_230_417)">
<path d="M93.7013 76.6733C96.3149 76.6733 98.8697 77.4462 101.043 78.8942C103.216 80.3423 104.91 82.4004 105.91 84.8084C106.91 87.2164 107.172 89.8661 106.662 92.4224C106.152 94.9788 104.893 97.3269 103.045 99.1699C101.197 101.013 98.8426 102.268 96.2793 102.776C93.716 103.285 91.0591 103.024 88.6445 102.027C86.2299 101.029 84.1661 99.3401 82.7141 97.1729C81.2621 95.0058 80.4871 92.4579 80.4871 89.8515C80.4871 86.3564 81.8793 83.0045 84.3574 80.5331C86.8356 78.0617 90.1967 76.6733 93.7013 76.6733Z" fill="white"/>
</g>
<path d="M93.7013 79.0693C95.8397 79.0693 97.93 79.7017 99.708 80.8865C101.486 82.0712 102.872 83.7552 103.69 85.7254C104.508 87.6955 104.722 89.8635 104.305 91.955C103.888 94.0466 102.858 95.9678 101.346 97.4757C99.8343 98.9836 97.9079 100.01 95.8106 100.427C93.7133 100.843 91.5395 100.629 89.5639 99.813C87.5883 98.9969 85.8998 97.6149 84.7118 95.8418C83.5237 94.0686 82.8896 91.984 82.8896 89.8515C82.8896 86.9919 84.0287 84.2494 86.0563 82.2274C88.0839 80.2053 90.8339 79.0693 93.7013 79.0693Z" fill="#BB85BC"/>
<path d="M93.1007 88.294H92.0195V84.4604H90.9383V88.294H89.8572V84.4604H88.8961V88.294C88.925 88.8249 89.1494 89.3263 89.5263 89.7022C89.9032 90.0781 90.4061 90.3019 90.9383 90.3307V95.1228H92.3799V90.3307C92.9121 90.3019 93.415 90.0781 93.7919 89.7022C94.1688 89.3263 94.3933 88.8249 94.4221 88.294V84.4604H93.2208L93.1007 88.294ZM95.8637 86.6168V91.0495H97.3052V95.3624H98.5065V84.5802C97.8814 84.5698 97.2728 84.7808 96.789 85.1756C96.3051 85.5704 95.9772 86.1235 95.8637 86.7366V86.6168Z" fill="white"/>
</g>
<defs>
<filter id="filter0_d_230_417" x="34.8441" y="34.1386" width="38.4286" height="38.3564" filterUnits="userSpaceOnUse" color-interpolation-filters="sRGB">
<feFlood flood-opacity="0" result="BackgroundImageFix"/>
<feColorMatrix in="SourceAlpha" type="matrix" values="0 0 0 0 0 0 0 0 0 0 0 0 0 0 0 0 0 0 127 0" result="hardAlpha"/>
<feOffset dy="3"/>
<feGaussianBlur stdDeviation="3"/>
<feColorMatrix type="matrix" values="0 0 0 0 0.133333 0 0 0 0 0.133333 0 0 0 0 0.133333 0 0 0 0.1 0"/>
<feBlend mode="normal" in2="BackgroundImageFix" result="effect1_dropShadow_230_417"/>
<feBlend mode="normal" in="SourceGraphic" in2="effect1_dropShadow_230_417" result="shape"/>
</filter>
<filter id="filter1_d_230_417" x="39.8441" y="37.1386" width="28.4286" height="28.3564" filterUnits="userSpaceOnUse" color-interpolation-filters="sRGB">
<feFlood flood-opacity="0" result="BackgroundImageFix"/>
<feColorMatrix in="SourceAlpha" type="matrix" values="0 0 0 0 0 0 0 0 0 0 0 0 0 0 0 0 0 0 127 0" result="hardAlpha"/>
<feOffset dy="1"/>
<feGaussianBlur stdDeviation="0.5"/>
<feColorMatrix type="matrix" values="0 0 0 0 0 0 0 0 0 0 0 0 0 0 0 0 0 0 0.1 0"/>
<feBlend mode="normal" in2="BackgroundImageFix" result="effect1_dropShadow_230_417"/>
<feBlend mode="normal" in="SourceGraphic" in2="effect1_dropShadow_230_417" result="shape"/>
</filter>
<filter id="filter2_d_230_417" x="82.8961" y="4.18811" width="38.4286" height="38.3564" filterUnits="userSpaceOnUse" color-interpolation-filters="sRGB">
<feFlood flood-opacity="0" result="BackgroundImageFix"/>
<feColorMatrix in="SourceAlpha" type="matrix" values="0 0 0 0 0 0 0 0 0 0 0 0 0 0 0 0 0 0 127 0" result="hardAlpha"/>
<feOffset dy="3"/>
<feGaussianBlur stdDeviation="3"/>
<feColorMatrix type="matrix" values="0 0 0 0 0.133333 0 0 0 0 0.133333 0 0 0 0 0.133333 0 0 0 0.1 0"/>
<feBlend mode="normal" in2="BackgroundImageFix" result="effect1_dropShadow_230_417"/>
<feBlend mode="normal" in="SourceGraphic" in2="effect1_dropShadow_230_417" result="shape"/>
</filter>
<filter id="filter3_d_230_417" x="87.8961" y="7.18811" width="28.4286" height="28.3564" filterUnits="userSpaceOnUse" color-interpolation-filters="sRGB">
<feFlood flood-opacity="0" result="BackgroundImageFix"/>
<feColorMatrix in="SourceAlpha" type="matrix" values="0 0 0 0 0 0 0 0 0 0 0 0 0 0 0 0 0 0 127 0" result="hardAlpha"/>
<feOffset dy="1"/>
<feGaussianBlur stdDeviation="0.5"/>
<feColorMatrix type="matrix" values="0 0 0 0 0 0 0 0 0 0 0 0 0 0 0 0 0 0 0.1 0"/>
<feBlend mode="normal" in2="BackgroundImageFix" result="effect1_dropShadow_230_417"/>
<feBlend mode="normal" in="SourceGraphic" in2="effect1_dropShadow_230_417" result="shape"/>
</filter>
<filter id="filter4_d_230_417" x="74.4871" y="73.6733" width="38.4286" height="38.3564" filterUnits="userSpaceOnUse" color-interpolation-filters="sRGB">
<feFlood flood-opacity="0" result="BackgroundImageFix"/>
<feColorMatrix in="SourceAlpha" type="matrix" values="0 0 0 0 0 0 0 0 0 0 0 0 0 0 0 0 0 0 127 0" result="hardAlpha"/>
<feOffset dy="3"/>
<feGaussianBlur stdDeviation="3"/>
<feColorMatrix type="matrix" values="0 0 0 0 0.133333 0 0 0 0 0.133333 0 0 0 0 0.133333 0 0 0 0.1 0"/>
<feBlend mode="normal" in2="BackgroundImageFix" result="effect1_dropShadow_230_417"/>
<feBlend mode="normal" in="SourceGraphic" in2="effect1_dropShadow_230_417" result="shape"/>
</filter>
<filter id="filter5_d_230_417" x="79.4871" y="76.6733" width="28.4286" height="28.3564" filterUnits="userSpaceOnUse" color-interpolation-filters="sRGB">
<feFlood flood-opacity="0" result="BackgroundImageFix"/>
<feColorMatrix in="SourceAlpha" type="matrix" values="0 0 0 0 0 0 0 0 0 0 0 0 0 0 0 0 0 0 127 0" result="hardAlpha"/>
<feOffset dy="1"/>
<feGaussianBlur stdDeviation="0.5"/>
<feColorMatrix type="matrix" values="0 0 0 0 0 0 0 0 0 0 0 0 0 0 0 0 0 0 0.1 0"/>
<feBlend mode="normal" in2="BackgroundImageFix" result="effect1_dropShadow_230_417"/>
<feBlend mode="normal" in="SourceGraphic" in2="effect1_dropShadow_230_417" result="shape"/>
</filter>
<clipPath id="clip0_230_417">
<rect width="185" height="121" fill="white"/>
</clipPath>
</defs>
</svg>
