<svg width="185" height="125" viewBox="0 0 185 125" fill="none" xmlns="http://www.w3.org/2000/svg">
<g clip-path="url(#clip0_230_389)">
<path d="M0 0H185V124.172H0V0Z" fill="#E6E4E0"/>
<path d="M100.549 124.172H91.8994L72.9189 112.251V112.127C72.8791 112.134 72.8385 112.134 72.7987 112.127V112.127L72.6786 112.003L62.7078 105.794C62.1123 105.694 61.509 105.653 60.9059 105.67H59.4643C59.1048 105.633 58.7426 105.633 58.3831 105.67C57.8367 105.749 57.3304 106.01 56.9416 106.415C56.2707 107.096 55.6671 107.845 55.1396 108.65V108.65L46.4903 124.172H44.0877L53.5779 107.036L55.1396 105.546L53.8182 104.304L53.0974 107.036L42.0455 124.172H39.1624V124.047H39.2825V123.923L39.6429 123.551V123.302H39.763V123.178L39.8831 123.054V122.93H40.0033C40.1273 122.62 40.2888 122.328 40.4838 122.061H41.0844L49.8539 108.774C49.8517 108.733 49.8517 108.692 49.8539 108.65C50.4289 107.774 50.9505 106.862 51.4156 105.918C51.6089 104.98 51.6896 104.021 51.6559 103.062C51.6052 102.765 51.5247 102.474 51.4156 102.193V102.069V101.821C51.1669 101.018 51.0452 100.18 51.0552 99.3373V99.089C51.045 99.0482 51.045 99.0055 51.0552 98.9648" stroke="#D6D9E5" stroke-width="0.3"/>
<path d="M180.195 70.6534C178.952 70.6534 177.761 70.1432 176.882 69.235C176.003 68.3268 175.51 67.0951 175.51 65.8107C175.51 64.5264 176.003 63.2946 176.882 62.3864C177.761 61.4782 178.952 60.968 180.195 60.968C181.437 60.968 182.629 61.4782 183.508 62.3864C184.386 63.2946 184.88 64.5264 184.88 65.8107C184.88 67.0951 184.386 68.3268 183.508 69.235C182.629 70.1432 181.437 70.6534 180.195 70.6534Z" fill="#EDEDCF"/>
<path d="M180.195 61.2166C179.016 61.2166 177.885 61.7007 177.052 62.5623C176.218 63.4239 175.75 64.5925 175.75 65.811C175.75 67.0295 176.218 68.1981 177.052 69.0597C177.885 69.9213 179.016 70.4053 180.195 70.4053C181.374 70.4053 182.504 69.9213 183.338 69.0597C184.171 68.1981 184.64 67.0295 184.64 65.811C184.64 64.5925 184.171 63.4239 183.338 62.5623C182.504 61.7007 181.374 61.2166 180.195 61.2166ZM180.195 60.8441C181.469 60.8441 182.691 61.3674 183.593 62.2989C184.494 63.2303 185 64.4937 185 65.811C185 67.1283 184.494 68.3916 183.593 69.3231C182.691 70.2545 181.469 70.7778 180.195 70.7778C178.92 70.7778 177.698 70.2545 176.797 69.3231C175.896 68.3916 175.39 67.1283 175.39 65.811C175.39 64.4937 175.896 63.2303 176.797 62.2989C177.698 61.3674 178.92 60.8441 180.195 60.8441Z" fill="#D6D9E5"/>
<path d="M70.276 0L96.7045 15.894C97.7439 16.9359 98.4555 18.2773 98.7467 19.7433C99.0284 21.2191 99.0284 22.7376 98.7467 24.2135C98.6266 25.0827 60.5455 91.0178 59.1039 92.3837C57.3019 93.7496 58.6234 93.1287 56.7013 93.6254C55.6904 93.7195 54.6869 93.8854 53.6981 94.1221C51.6558 94.1221 48.8929 91.887 44.6883 89.4036L26.6688 77.9798L22.3442 74.2546L0 60.7199V0H70.276Z" fill="#FF7D3B" fill-opacity="0.15"/>
<path d="M110.88 25.2068L171.545 62.7067C172.148 63.2007 172.675 63.7869 173.107 64.4451C173.468 65.0659 173.107 66.9285 173.347 68.1702C173.463 68.966 173.764 69.7208 174.224 70.3697C174.685 71.0186 175.291 71.5422 175.99 71.8954C177.933 72.8607 180.133 73.1231 182.237 72.6404C183.269 72.4036 184.222 71.8896 185 71.1503V124.172H100.188L65.1104 101.324C64.285 100.699 63.6579 99.8346 63.3084 98.8406C63.0682 97.5989 62.4675 95.6121 63.3084 93.8737C64.1493 92.1353 102.471 26.8211 102.471 26.8211C102.785 26.2905 103.147 25.7916 103.552 25.331C104.032 24.9585 105.955 25.331 106.795 25.0827C107.636 24.8343 107.877 23.9651 108.597 24.0893C109.46 24.3612 110.272 24.7809 111 25.331L110.88 25.2068ZM185 0V52.6488L182.237 57.3673C181.767 58.0373 181.088 58.5197 180.315 58.7332C178.873 59.1057 179.114 58.7332 178.273 58.9815C177.839 59.0416 177.426 59.2123 177.071 59.4782C176.229 59.8094 175.315 59.8952 174.429 59.7265L112.922 21.2333C112.571 21.0422 112.261 20.7781 112.013 20.4576C111.765 20.1371 111.584 19.7671 111.481 19.3708C111.04 18.0711 110.679 16.7439 110.399 15.3973C110.257 14.1082 110.509 12.8055 111.12 11.6721C111.961 9.80956 117.607 0 117.607 0L185 0Z" fill="#FF7D3B" fill-opacity="0.07"/>
<g filter="url(#filter0_d_230_389)">
<path d="M51.6558 58.3607C54.2694 58.3607 56.8242 59.1617 58.9973 60.6626C61.1704 62.1635 62.8641 64.2967 63.8642 66.7925C64.8644 69.2883 65.1261 72.0347 64.6162 74.6842C64.1063 77.3338 62.8478 79.7676 60.9997 81.6778C59.1517 83.588 56.7971 84.8889 54.2338 85.416C51.6705 85.943 49.0135 85.6725 46.5989 84.6387C44.1843 83.6049 42.1205 81.8542 40.6685 79.608C39.2165 77.3618 38.4415 74.721 38.4415 72.0195C38.4415 68.397 39.8337 64.9228 42.3119 62.3612C44.7901 59.7997 48.1512 58.3607 51.6558 58.3607Z" fill="white"/>
</g>
<g filter="url(#filter1_d_230_389)">
<path d="M51.6558 58.3607C54.2694 58.3607 56.8242 59.1617 58.9973 60.6626C61.1704 62.1635 62.8641 64.2967 63.8642 66.7925C64.8644 69.2883 65.1261 72.0347 64.6162 74.6842C64.1063 77.3338 62.8478 79.7676 60.9997 81.6778C59.1517 83.588 56.7971 84.8889 54.2338 85.416C51.6705 85.943 49.0135 85.6725 46.5989 84.6387C44.1843 83.6049 42.1205 81.8542 40.6685 79.608C39.2165 77.3618 38.4415 74.721 38.4415 72.0195C38.4415 68.397 39.8337 64.9228 42.3119 62.3612C44.7901 59.7997 48.1512 58.3607 51.6558 58.3607Z" fill="white"/>
</g>
<path d="M51.6558 60.8441C53.7942 60.8441 55.8845 61.4995 57.6625 62.7275C59.4404 63.9555 60.8262 65.7009 61.6445 67.7429C62.4628 69.785 62.6769 72.032 62.2598 74.1998C61.8426 76.3676 60.8129 78.3589 59.3008 79.9218C57.7888 81.4847 55.8623 82.5491 53.7651 82.9803C51.6678 83.4115 49.4939 83.1902 47.5184 82.3443C45.5428 81.4985 43.8542 80.0661 42.6662 78.2283C41.4782 76.3905 40.8441 74.2299 40.8441 72.0196C40.8441 69.0556 41.9832 66.2131 44.0108 64.1173C46.0384 62.0215 48.7884 60.8441 51.6558 60.8441Z" fill="#F2AF8B"/>
<path d="M47.5714 72.7646V75.248L51.6558 77.4831L55.7403 75.1238V72.7646L51.6558 75.1238L47.5714 72.7646ZM51.6558 66.556L45.1688 70.2811L51.6558 73.7579L56.9416 70.7778V74.9996H58.1429V70.0328L51.6558 66.556Z" fill="white"/>
<g filter="url(#filter2_d_230_389)">
<path d="M79.2857 12.4172C81.8992 12.4172 84.4541 13.2183 86.6272 14.7191C88.8002 16.22 90.4939 18.3532 91.4941 20.849C92.4943 23.3449 92.7559 26.0912 92.2461 28.7408C91.7362 31.3903 90.4777 33.8241 88.6296 35.7343C86.7816 37.6446 84.427 38.9454 81.8637 39.4725C79.3004 39.9995 76.6434 39.729 74.2288 38.6952C71.8142 37.6614 69.7504 35.9107 68.2984 33.6645C66.8464 31.4183 66.0714 28.7775 66.0714 26.0761C66.0714 22.4535 67.4636 18.9793 69.9418 16.4178C72.4199 13.8562 75.7811 12.4172 79.2857 12.4172Z" fill="white"/>
</g>
<g filter="url(#filter3_d_230_389)">
<path d="M79.2857 12.4172C81.8992 12.4172 84.4541 13.2183 86.6272 14.7191C88.8002 16.22 90.4939 18.3532 91.4941 20.849C92.4943 23.3449 92.7559 26.0912 92.2461 28.7408C91.7362 31.3903 90.4777 33.8241 88.6296 35.7343C86.7816 37.6446 84.427 38.9454 81.8637 39.4725C79.3004 39.9995 76.6434 39.729 74.2288 38.6952C71.8142 37.6614 69.7504 35.9107 68.2984 33.6645C66.8464 31.4183 66.0714 28.7775 66.0714 26.0761C66.0714 22.4535 67.4636 18.9793 69.9418 16.4178C72.4199 13.8562 75.7811 12.4172 79.2857 12.4172Z" fill="white"/>
</g>
<path d="M79.2857 14.9006C81.424 14.9006 83.5144 15.556 85.2923 16.784C87.0703 18.0119 88.4561 19.7573 89.2744 21.7994C90.0927 23.8414 90.3068 26.0884 89.8896 28.2562C89.4725 30.4241 88.4427 32.4153 86.9307 33.9782C85.4187 35.5412 83.4922 36.6055 81.3949 37.0367C79.2977 37.4679 77.1238 37.2466 75.1482 36.4008C73.1727 35.5549 71.4841 34.1226 70.2961 32.2848C69.1081 30.447 68.474 28.2863 68.474 26.076C68.474 23.1121 69.6131 20.2696 71.6407 18.1738C73.6683 16.078 76.4182 14.9006 79.2857 14.9006Z" fill="#F2AF8B"/>
<path d="M75.2013 26.8211V29.3045L79.2857 31.5396L83.3701 29.1803V26.8211L79.2857 29.1803L75.2013 26.8211ZM79.2857 20.6125L72.7987 24.3376L79.2857 27.8144L84.5714 24.8343V29.0562H85.7727V24.0893L79.2857 20.6125Z" fill="white"/>
<g filter="url(#filter4_d_230_389)">
<path d="M111.721 68.2944C114.334 68.2944 116.889 69.0955 119.062 70.5963C121.235 72.0972 122.929 74.2304 123.929 76.7262C124.929 79.2221 125.191 81.9684 124.681 84.618C124.171 87.2675 122.913 89.7013 121.065 91.6115C119.217 93.5218 116.862 94.8226 114.299 95.3497C111.735 95.8767 109.078 95.6062 106.664 94.5724C104.249 93.5386 102.185 91.7879 100.733 89.5417C99.2815 87.2955 98.5065 84.6547 98.5065 81.9532C98.5065 78.3307 99.8987 74.8565 102.377 72.295C104.855 69.7334 108.216 68.2944 111.721 68.2944Z" fill="white"/>
</g>
<g filter="url(#filter5_d_230_389)">
<path d="M111.721 68.2944C114.334 68.2944 116.889 69.0955 119.062 70.5963C121.235 72.0972 122.929 74.2304 123.929 76.7262C124.929 79.2221 125.191 81.9684 124.681 84.618C124.171 87.2675 122.913 89.7013 121.065 91.6115C119.217 93.5218 116.862 94.8226 114.299 95.3497C111.735 95.8767 109.078 95.6062 106.664 94.5724C104.249 93.5386 102.185 91.7879 100.733 89.5417C99.2815 87.2955 98.5065 84.6547 98.5065 81.9532C98.5065 78.3307 99.8987 74.8565 102.377 72.295C104.855 69.7334 108.216 68.2944 111.721 68.2944Z" fill="white"/>
</g>
<path d="M111.721 70.7778C113.859 70.7778 115.949 71.4333 117.727 72.6612C119.505 73.8892 120.891 75.6346 121.709 77.6766C122.528 79.7187 122.742 81.9657 122.325 84.1335C121.908 86.3013 120.878 88.2926 119.366 89.8555C117.854 91.4184 115.927 92.4828 113.83 92.914C111.733 93.3452 109.559 93.1239 107.583 92.278C105.608 91.4322 103.919 89.9998 102.731 88.162C101.543 86.3242 100.909 84.1636 100.909 81.9533C100.909 78.9894 102.048 76.1468 104.076 74.051C106.103 71.9552 108.853 70.7778 111.721 70.7778Z" fill="#F2AF8B"/>
<path d="M107.636 82.6983V85.1817L111.721 87.4168L115.805 85.0575V82.6983L111.721 85.0575L107.636 82.6983ZM111.721 76.4897L105.234 80.2148L111.721 83.6916L117.006 80.7115V84.9334H118.208V79.9665L111.721 76.4897Z" fill="white"/>
</g>
<defs>
<filter id="filter0_d_230_389" x="32.4415" y="55.3607" width="38.4286" height="39.3177" filterUnits="userSpaceOnUse" color-interpolation-filters="sRGB">
<feFlood flood-opacity="0" result="BackgroundImageFix"/>
<feColorMatrix in="SourceAlpha" type="matrix" values="0 0 0 0 0 0 0 0 0 0 0 0 0 0 0 0 0 0 127 0" result="hardAlpha"/>
<feOffset dy="3"/>
<feGaussianBlur stdDeviation="3"/>
<feColorMatrix type="matrix" values="0 0 0 0 0.133333 0 0 0 0 0.133333 0 0 0 0 0.133333 0 0 0 0.1 0"/>
<feBlend mode="normal" in2="BackgroundImageFix" result="effect1_dropShadow_230_389"/>
<feBlend mode="normal" in="SourceGraphic" in2="effect1_dropShadow_230_389" result="shape"/>
</filter>
<filter id="filter1_d_230_389" x="37.4415" y="58.3607" width="28.4286" height="29.3177" filterUnits="userSpaceOnUse" color-interpolation-filters="sRGB">
<feFlood flood-opacity="0" result="BackgroundImageFix"/>
<feColorMatrix in="SourceAlpha" type="matrix" values="0 0 0 0 0 0 0 0 0 0 0 0 0 0 0 0 0 0 127 0" result="hardAlpha"/>
<feOffset dy="1"/>
<feGaussianBlur stdDeviation="0.5"/>
<feColorMatrix type="matrix" values="0 0 0 0 0 0 0 0 0 0 0 0 0 0 0 0 0 0 0.1 0"/>
<feBlend mode="normal" in2="BackgroundImageFix" result="effect1_dropShadow_230_389"/>
<feBlend mode="normal" in="SourceGraphic" in2="effect1_dropShadow_230_389" result="shape"/>
</filter>
<filter id="filter2_d_230_389" x="60.0714" y="9.41718" width="38.4286" height="39.3177" filterUnits="userSpaceOnUse" color-interpolation-filters="sRGB">
<feFlood flood-opacity="0" result="BackgroundImageFix"/>
<feColorMatrix in="SourceAlpha" type="matrix" values="0 0 0 0 0 0 0 0 0 0 0 0 0 0 0 0 0 0 127 0" result="hardAlpha"/>
<feOffset dy="3"/>
<feGaussianBlur stdDeviation="3"/>
<feColorMatrix type="matrix" values="0 0 0 0 0.133333 0 0 0 0 0.133333 0 0 0 0 0.133333 0 0 0 0.1 0"/>
<feBlend mode="normal" in2="BackgroundImageFix" result="effect1_dropShadow_230_389"/>
<feBlend mode="normal" in="SourceGraphic" in2="effect1_dropShadow_230_389" result="shape"/>
</filter>
<filter id="filter3_d_230_389" x="65.0714" y="12.4172" width="28.4286" height="29.3177" filterUnits="userSpaceOnUse" color-interpolation-filters="sRGB">
<feFlood flood-opacity="0" result="BackgroundImageFix"/>
<feColorMatrix in="SourceAlpha" type="matrix" values="0 0 0 0 0 0 0 0 0 0 0 0 0 0 0 0 0 0 127 0" result="hardAlpha"/>
<feOffset dy="1"/>
<feGaussianBlur stdDeviation="0.5"/>
<feColorMatrix type="matrix" values="0 0 0 0 0 0 0 0 0 0 0 0 0 0 0 0 0 0 0.1 0"/>
<feBlend mode="normal" in2="BackgroundImageFix" result="effect1_dropShadow_230_389"/>
<feBlend mode="normal" in="SourceGraphic" in2="effect1_dropShadow_230_389" result="shape"/>
</filter>
<filter id="filter4_d_230_389" x="92.5065" y="65.2944" width="38.4286" height="39.3177" filterUnits="userSpaceOnUse" color-interpolation-filters="sRGB">
<feFlood flood-opacity="0" result="BackgroundImageFix"/>
<feColorMatrix in="SourceAlpha" type="matrix" values="0 0 0 0 0 0 0 0 0 0 0 0 0 0 0 0 0 0 127 0" result="hardAlpha"/>
<feOffset dy="3"/>
<feGaussianBlur stdDeviation="3"/>
<feColorMatrix type="matrix" values="0 0 0 0 0.133333 0 0 0 0 0.133333 0 0 0 0 0.133333 0 0 0 0.1 0"/>
<feBlend mode="normal" in2="BackgroundImageFix" result="effect1_dropShadow_230_389"/>
<feBlend mode="normal" in="SourceGraphic" in2="effect1_dropShadow_230_389" result="shape"/>
</filter>
<filter id="filter5_d_230_389" x="97.5065" y="68.2944" width="28.4286" height="29.3177" filterUnits="userSpaceOnUse" color-interpolation-filters="sRGB">
<feFlood flood-opacity="0" result="BackgroundImageFix"/>
<feColorMatrix in="SourceAlpha" type="matrix" values="0 0 0 0 0 0 0 0 0 0 0 0 0 0 0 0 0 0 127 0" result="hardAlpha"/>
<feOffset dy="1"/>
<feGaussianBlur stdDeviation="0.5"/>
<feColorMatrix type="matrix" values="0 0 0 0 0 0 0 0 0 0 0 0 0 0 0 0 0 0 0.1 0"/>
<feBlend mode="normal" in2="BackgroundImageFix" result="effect1_dropShadow_230_389"/>
<feBlend mode="normal" in="SourceGraphic" in2="effect1_dropShadow_230_389" result="shape"/>
</filter>
<clipPath id="clip0_230_389">
<rect width="185" height="124.172" fill="white"/>
</clipPath>
</defs>
</svg>
